{"accessors":[{"bufferView":0,"componentType":5126,"count":101,"max":[4.1689777,3.950804,4.0684786,0.0,3.890556,4.168977,4.057799,0.0,3.4670506,4.051837,4.1689773,0.0,6.943136,7.2679596,9.146113,1.0],"min":[-4.1689773,-3.9508038,-4.0684786,0.0,-3.8905559,-4.1684685,-4.146396,0.0,-3.4670506,-4.168908,-4.16893,0.0,-6.9431367,-12.684871,-5.7668166,1.0],"normalized":false,"type":"MAT4"},{"bufferView":1,"componentType":5126,"count":1154,"max":[0.5652425,1.8958092,0.12781529],"min":[-0.5653728,-0.009677461,-1.3727556],"normalized":false,"type":"VEC3"},{"bufferView":2,"componentType":5126,"count":1154,"max":[0.99993026,0.9878056,0.99985343,1.0],"min":[-0.99997723,-0.99944973,-0.9999149,1.0],"normalized":false,"type":"VEC4"},{"bufferView":3,"componentType":5126,"count":1154,"max":[0.9999104,0.9999945,0.9995753],"min":[-0.9996796,-0.99843526,-0.9998338],"normalized":false,"type":"VEC3"},{"bufferView":4,"componentType":5126,"count":1154,"max":[0.8398082,0.9837943],"min":[0.026460797,0.016205788],"normalized":false,"type":"VEC2"},{"bufferView":5,"componentType":5121,"count":1154,"max":[39,39,37,37],"min":[2,0,0,0],"normalized":false,"type":"VEC4"},{"bufferView":6,"componentType":5126,"count":1154,"max":[1.0,0.49943542,0.15128024,0.095815785],"min":[0.5005646,0.0,0.0,0.0],"normalized":false,"type":"VEC4"},{"bufferView":7,"componentType":5123,"count":5856,"max":[1153],"min":[0],"normalized":false,"type":"SCALAR"},{"bufferView":8,"componentType":5126,"count":177,"max":[0.12325731,1.8773292,0.13573593],"min":[-0.123257324,1.4189578,-0.12057872],"normalized":false,"type":"VEC3"},{"bufferView":9,"componentType":5126,"count":177,"max":[1.0,0.9805646,0.9976448,1.0],"min":[-0.99692106,-0.98734707,-0.9977253,1.0],"normalized":false,"type":"VEC4"},{"bufferView":10,"componentType":5126,"count":177,"max":[0.99009436,0.9901656,0.99989265],"min":[-0.9900968,-0.97512436,-0.9867072],"normalized":false,"type":"VEC3"},{"bufferView":11,"componentType":5126,"count":177,"max":[0.63451976,0.5272238],"min":[0.3460837,0.29205275],"normalized":false,"type":"VEC2"},{"bufferView":12,"componentType":5121,"count":177,"max":[15,37,32,0],"min":[14,0,0,0],"normalized":false,"type":"VEC4"},{"bufferView":13,"componentType":5126,"count":177,"max":[1.0,0.48748744,0.0029603404,0.0],"min":[0.51251256,0.0,0.0,0.0],"normalized":false,"type":"VEC4"},{"bufferView":14,"componentType":5121,"count":540,"max":[176],"min":[0],"normalized":false,"type":"SCALAR"},{"bufferView":15,"componentType":5126,"count":148,"max":[0.090316474,2.0256343,0.12789154],"min":[-0.09031649,1.4380922,-0.068659104],"normalized":false,"type":"VEC3"},{"bufferView":16,"componentType":5126,"count":148,"max":[0.99998504,0.70034415,0.9988578,1.0],"min":[-0.99993753,-0.99881095,-0.7738428,1.0],"normalized":false,"type":"VEC4"},{"bufferView":17,"componentType":5126,"count":148,"max":[0.9753558,0.998591,0.9999328],"min":[-0.993419,-0.40739757,-0.9999968],"normalized":false,"type":"VEC3"},{"bufferView":18,"componentType":5126,"count":148,"max":[0.7537253,0.59559524],"min":[0.086545706,0.15188193],"normalized":false,"type":"VEC2"},{"bufferView":19,"componentType":5121,"count":148,"max":[16,17,17,0],"min":[14,0,0,0],"normalized":false,"type":"VEC4"},{"bufferView":20,"componentType":5126,"count":148,"max":[1.0,0.46102786,0.0029756,0.0],"min":[0.53897214,0.0,0.0,0.0],"normalized":false,"type":"VEC4"},{"bufferView":21,"componentType":5121,"count":690,"max":[147],"min":[0],"normalized":false,"type":"SCALAR"},{"bufferView":22,"componentType":5126,"count":196,"max":[0.5531101,0.7638525,0.055075213],"min":[-0.5531101,0.6682097,-0.064148724],"normalized":false,"type":"VEC3"},{"bufferView":23,"componentType":5126,"count":196,"max":[0.9949074,0.9903316,0.33386156,1.0],"min":[-0.9949116,-0.9736018,-0.907622,-1.0],"normalized":false,"type":"VEC4"},{"bufferView":24,"componentType":5126,"count":196,"max":[0.9790165,0.99882454,0.96451896],"min":[-0.9790251,-0.9746846,-0.9714704],"normalized":false,"type":"VEC3"},{"bufferView":25,"componentType":5126,"count":196,"max":[0.9638469,0.9543976],"min":[0.02847156,0.06671828],"normalized":false,"type":"VEC2"},{"bufferView":26,"componentType":5121,"count":196,"max":[81,81,0,0],"min":[53,0,0,0],"normalized":false,"type":"VEC4"},{"bufferView":27,"componentType":5126,"count":196,"max":[1.0,0.48945588,0.0,0.0],"min":[0.5105442,0.0,0.0,0.0],"normalized":false,"type":"VEC4"},{"bufferView":28,"componentType":5121,"count":1056,"max":[195],"min":[0],"normalized":false,"type":"SCALAR"},{"bufferView":29,"componentType":5126,"count":2240,"max":[0.66144633,2.236273,0.17697802],"min":[-0.66144633,0.0015888263,-0.4914262],"normalized":false,"type":"VEC3"},{"bufferView":30,"componentType":5126,"count":2240,"max":[1.0,0.99982864,0.9924346,1.0],"min":[-0.9999517,-0.9998382,-0.96103233,-1.0],"normalized":false,"type":"VEC4"},{"bufferView":31,"componentType":5126,"count":2240,"max":[0.99983335,0.99035656,0.99995184],"min":[-0.99996054,-0.9999587,-0.9999316],"normalized":false,"type":"VEC3"},{"bufferView":32,"componentType":5126,"count":2240,"max":[0.9394859,0.9801278],"min":[0.022144973,0.031001091],"normalized":false,"type":"VEC2"},{"bufferView":33,"componentType":5121,"count":2240,"max":[51,51,51,51],"min":[15,0,0,0],"normalized":false,"type":"VEC4"},{"bufferView":34,"componentType":5126,"count":2240,"max":[1.0,0.49993896,0.31389248,0.24337728],"min":[0.25849965,0.0,0.0,0.0],"normalized":false,"type":"VEC4"},{"bufferView":35,"componentType":5123,"count":12150,"max":[2239],"min":[0],"normalized":false,"type":"SCALAR"},{"bufferView":36,"componentType":5126,"count":215,"max":[0.065598965,2.3238819,0.14614677],"min":[-0.1064443,2.011939,-0.027055625],"normalized":false,"type":"VEC3"},{"bufferView":37,"componentType":5126,"count":215,"max":[1.0,0.99990267,0.76205254,1.0],"min":[-0.99988943,-0.87011886,-0.76702666,-1.0],"normalized":false,"type":"VEC4"},{"bufferView":38,"componentType":5126,"count":215,"max":[0.9954963,0.9641151,0.99997324],"min":[-0.9971427,-0.96411645,-0.99935305],"normalized":false,"type":"VEC3"},{"bufferView":39,"componentType":5126,"count":215,"max":[0.8750001,1.0],"min":[0.0,-1.1920929e-07],"normalized":false,"type":"VEC2"},{"bufferView":40,"componentType":5121,"count":215,"max":[17,0,0,0],"min":[17,0,0,0],"normalized":false,"type":"VEC4"},{"bufferView":41,"componentType":5126,"count":215,"max":[1.0,0.0,0.0,0.0],"min":[1.0,0.0,0.0,0.0],"normalized":false,"type":"VEC4"},{"bufferView":42,"componentType":5121,"count":960,"max":[214],"min":[0],"normalized":false,"type":"SCALAR"},{"bufferView":43,"componentType":5126,"count":1672,"max":[0.64043707,0.7013168,0.14667834],"min":[-0.64043707,0.40578473,-0.0875441],"normalized":false,"type":"VEC3"},{"bufferView":44,"componentType":5126,"count":1672,"max":[0.99261343,0.9736607,0.99937046,1.0],"min":[-0.9926061,-0.992246,-0.9922614,-1.0],"normalized":false,"type":"VEC4"},{"bufferView":45,"componentType":5126,"count":1672,"max":[0.9993243,0.960573,0.9935076],"min":[-0.99932396,-0.9887126,-0.9940076],"normalized":false,"type":"VEC3"},{"bufferView":46,"componentType":5126,"count":1672,"max":[0.6301602,0.9793912],"min":[0.01893039,0.1511643],"normalized":false,"type":"VEC2"},{"bufferView":47,"componentType":5121,"count":1672,"max":[100,100,100,100],"min":[54,0,0,0],"normalized":false,"type":"VEC4"},{"bufferView":48,"componentType":5126,"count":1672,"max":[1.0,0.49993896,0.3063037,0.22703065],"min":[0.28428426,0.0,0.0,0.0],"normalized":false,"type":"VEC4"},{"bufferView":49,"componentType":5123,"count":8004,"max":[1671],"min":[0],"normalized":false,"type":"SCALAR"},{"bufferView":50,"componentType":5126,"count":404,"max":[0.27192387,2.6065507,0.42939845],"min":[-0.34311548,2.1644688,-0.2183833],"normalized":false,"type":"VEC3"},{"bufferView":51,"componentType":5126,"count":404,"max":[0.99386036,0.99434805,0.91944087,1.0],"min":[-0.99940026,-0.9821945,-0.9960037,1.0],"normalized":false,"type":"VEC4"},{"bufferView":52,"componentType":5126,"count":404,"max":[0.9997746,0.99993867,0.98588675],"min":[-0.99458474,-0.9989644,-0.99949557],"normalized":false,"type":"VEC3"},{"bufferView":53,"componentType":5126,"count":404,"max":[0.98084277,0.9831313],"min":[0.0048995465,0.2857355],"normalized":false,"type":"VEC2"},{"bufferView":54,"componentType":5121,"count":404,"max":[19,0,0,0],"min":[18,0,0,0],"normalized":false,"type":"VEC4"},{"bufferView":55,"componentType":5126,"count":404,"max":[1.0,0.0,0.0,0.0],"min":[1.0,0.0,0.0,0.0],"normalized":false,"type":"VEC4"},{"bufferView":56,"componentType":5123,"count":1944,"max":[403],"min":[0],"normalized":false,"type":"SCALAR"},{"bufferView":57,"componentType":5126,"count":277,"max":[0.3273273,2.1328156,0.3102571],"min":[0.0073699653,1.957641,0.07321599],"normalized":false,"type":"VEC3"},{"bufferView":58,"componentType":5126,"count":277,"max":[0.7035934,0.99242705,0.81646305,1.0],"min":[-0.9979631,-0.9489156,-0.9903593,-1.0],"normalized":false,"type":"VEC4"},{"bufferView":59,"componentType":5126,"count":277,"max":[0.9939864,0.9979108,0.98691255],"min":[-0.98411757,-0.9925728,-0.98536265],"normalized":false,"type":"VEC3"},{"bufferView":60,"componentType":5126,"count":277,"max":[0.9022837,0.90428376],"min":[0.060804635,0.021608472],"normalized":false,"type":"VEC2"},{"bufferView":61,"componentType":5121,"count":277,"max":[52,0,0,0],"min":[52,0,0,0],"normalized":false,"type":"VEC4"},{"bufferView":62,"componentType":5126,"count":277,"max":[1.0,0.0,0.0,0.0],"min":[1.0,0.0,0.0,0.0],"normalized":false,"type":"VEC4"},{"bufferView":63,"componentType":5123,"count":1434,"max":[276],"min":[0],"normalized":false,"type":"SCALAR"},{"bufferView":64,"componentType":5126,"count":653,"max":[0.31981623,2.0554483,0.3030835],"min":[0.24397078,2.0162666,0.22827834],"normalized":false,"type":"VEC3"},{"bufferView":65,"componentType":5126,"count":653,"max":[0.9101318,0.9402743,0.53054756,1.0],"min":[-0.5573321,-0.9882676,-0.9459794,1.0],"normalized":false,"type":"VEC4"},{"bufferView":66,"componentType":5126,"count":653,"max":[0.9965757,0.9995928,0.99737597],"min":[-0.8433346,-0.531771,-0.92494905],"normalized":false,"type":"VEC3"},{"bufferView":67,"componentType":5126,"count":653,"max":[0.6307682,0.76352817],"min":[0.44985035,0.584097],"normalized":false,"type":"VEC2"},{"bufferView":68,"componentType":5121,"count":653,"max":[52,0,0,0],"min":[52,0,0,0],"normalized":false,"type":"VEC4"},{"bufferView":69,"componentType":5126,"count":653,"max":[1.0,0.0,0.0,0.0],"min":[1.0,0.0,0.0,0.0],"normalized":false,"type":"VEC4"},{"bufferView":70,"componentType":5123,"count":1872,"max":[652],"min":[0],"normalized":false,"type":"SCALAR"},{"bufferView":71,"componentType":5126,"count":916,"max":[0.042548805,2.1680717,0.12876779],"min":[-0.08404803,2.0978727,0.06847708],"normalized":false,"type":"VEC3"},{"bufferView":72,"componentType":5126,"count":916,"max":[0.9999663,0.9131486,0.99982655,1.0],"min":[-0.99967605,-0.9192779,-0.9990782,1.0],"normalized":false,"type":"VEC4"},{"bufferView":73,"componentType":5126,"count":916,"max":[0.99946654,0.98807704,0.99993056],"min":[-0.99983764,-0.99989736,-0.9989598],"normalized":false,"type":"VEC3"},{"bufferView":74,"componentType":5126,"count":916,"max":[0.98518574,0.9610494],"min":[0.7555763,0.14477545],"normalized":false,"type":"VEC2"},{"bufferView":75,"componentType":5121,"count":916,"max":[23,22,22,0],"min":[20,21,0,0],"normalized":false,"type":"VEC4"},{"bufferView":76,"componentType":5126,"count":916,"max":[0.69056815,0.49978638,0.15309611,0.0],"min":[0.5002136,0.15646839,0.0,0.0],"normalized":false,"type":"VEC4"},{"bufferView":77,"componentType":5123,"count":4176,"max":[915],"min":[0],"normalized":false,"type":"SCALAR"}],"asset":{"copyright":"The Creators of 'Friday Night Funkin': Lullaby'","generator":"GDRE Tools vv2.6.3","version":"2.0"},"bufferViews":[{"buffer":0,"byteLength":6464},{"buffer":0,"byteLength":13848,"byteOffset":6464,"byteStride":12,"target":34962},{"buffer":0,"byteLength":18464,"byteOffset":20312,"byteStride":16,"target":34962},{"buffer":0,"byteLength":13848,"byteOffset":38776,"byteStride":12,"target":34962},{"buffer":0,"byteLength":9232,"byteOffset":52624,"byteStride":8,"target":34962},{"buffer":0,"byteLength":4616,"byteOffset":61856,"byteStride":4,"target":34962},{"buffer":0,"byteLength":18464,"byteOffset":66472,"byteStride":16,"target":34962},{"buffer":0,"byteLength":11712,"byteOffset":84936,"target":34963},{"buffer":0,"byteLength":2124,"byteOffset":96648,"byteStride":12,"target":34962},{"buffer":0,"byteLength":2832,"byteOffset":98772,"byteStride":16,"target":34962},{"buffer":0,"byteLength":2124,"byteOffset":101604,"byteStride":12,"target":34962},{"buffer":0,"byteLength":1416,"byteOffset":103728,"byteStride":8,"target":34962},{"buffer":0,"byteLength":708,"byteOffset":105144,"byteStride":4,"target":34962},{"buffer":0,"byteLength":2832,"byteOffset":105852,"byteStride":16,"target":34962},{"buffer":0,"byteLength":540,"byteOffset":108684,"target":34963},{"buffer":0,"byteLength":1776,"byteOffset":109224,"byteStride":12,"target":34962},{"buffer":0,"byteLength":2368,"byteOffset":111000,"byteStride":16,"target":34962},{"buffer":0,"byteLength":1776,"byteOffset":113368,"byteStride":12,"target":34962},{"buffer":0,"byteLength":1184,"byteOffset":115144,"byteStride":8,"target":34962},{"buffer":0,"byteLength":592,"byteOffset":116328,"byteStride":4,"target":34962},{"buffer":0,"byteLength":2368,"byteOffset":116920,"byteStride":16,"target":34962},{"buffer":0,"byteLength":690,"byteOffset":119288,"target":34963},{"buffer":0,"byteLength":2352,"byteOffset":119980,"byteStride":12,"target":34962},{"buffer":0,"byteLength":3136,"byteOffset":122332,"byteStride":16,"target":34962},{"buffer":0,"byteLength":2352,"byteOffset":125468,"byteStride":12,"target":34962},{"buffer":0,"byteLength":1568,"byteOffset":127820,"byteStride":8,"target":34962},{"buffer":0,"byteLength":784,"byteOffset":129388,"byteStride":4,"target":34962},{"buffer":0,"byteLength":3136,"byteOffset":130172,"byteStride":16,"target":34962},{"buffer":0,"byteLength":1056,"byteOffset":133308,"target":34963},{"buffer":0,"byteLength":26880,"byteOffset":134364,"byteStride":12,"target":34962},{"buffer":0,"byteLength":35840,"byteOffset":161244,"byteStride":16,"target":34962},{"buffer":0,"byteLength":26880,"byteOffset":197084,"byteStride":12,"target":34962},{"buffer":0,"byteLength":17920,"byteOffset":223964,"byteStride":8,"target":34962},{"buffer":0,"byteLength":8960,"byteOffset":241884,"byteStride":4,"target":34962},{"buffer":0,"byteLength":35840,"byteOffset":250844,"byteStride":16,"target":34962},{"buffer":0,"byteLength":24300,"byteOffset":286684,"target":34963},{"buffer":0,"byteLength":2580,"byteOffset":310984,"byteStride":12,"target":34962},{"buffer":0,"byteLength":3440,"byteOffset":313564,"byteStride":16,"target":34962},{"buffer":0,"byteLength":2580,"byteOffset":317004,"byteStride":12,"target":34962},{"buffer":0,"byteLength":1720,"byteOffset":319584,"byteStride":8,"target":34962},{"buffer":0,"byteLength":860,"byteOffset":321304,"byteStride":4,"target":34962},{"buffer":0,"byteLength":3440,"byteOffset":322164,"byteStride":16,"target":34962},{"buffer":0,"byteLength":960,"byteOffset":325604,"target":34963},{"buffer":0,"byteLength":20064,"byteOffset":326564,"byteStride":12,"target":34962},{"buffer":0,"byteLength":26752,"byteOffset":346628,"byteStride":16,"target":34962},{"buffer":0,"byteLength":20064,"byteOffset":373380,"byteStride":12,"target":34962},{"buffer":0,"byteLength":13376,"byteOffset":393444,"byteStride":8,"target":34962},{"buffer":0,"byteLength":6688,"byteOffset":406820,"byteStride":4,"target":34962},{"buffer":0,"byteLength":26752,"byteOffset":413508,"byteStride":16,"target":34962},{"buffer":0,"byteLength":16008,"byteOffset":440260,"target":34963},{"buffer":0,"byteLength":4848,"byteOffset":456268,"byteStride":12,"target":34962},{"buffer":0,"byteLength":6464,"byteOffset":461116,"byteStride":16,"target":34962},{"buffer":0,"byteLength":4848,"byteOffset":467580,"byteStride":12,"target":34962},{"buffer":0,"byteLength":3232,"byteOffset":472428,"byteStride":8,"target":34962},{"buffer":0,"byteLength":1616,"byteOffset":475660,"byteStride":4,"target":34962},{"buffer":0,"byteLength":6464,"byteOffset":477276,"byteStride":16,"target":34962},{"buffer":0,"byteLength":3888,"byteOffset":483740,"target":34963},{"buffer":0,"byteLength":3324,"byteOffset":487628,"byteStride":12,"target":34962},{"buffer":0,"byteLength":4432,"byteOffset":490952,"byteStride":16,"target":34962},{"buffer":0,"byteLength":3324,"byteOffset":495384,"byteStride":12,"target":34962},{"buffer":0,"byteLength":2216,"byteOffset":498708,"byteStride":8,"target":34962},{"buffer":0,"byteLength":1108,"byteOffset":500924,"byteStride":4,"target":34962},{"buffer":0,"byteLength":4432,"byteOffset":502032,"byteStride":16,"target":34962},{"buffer":0,"byteLength":2868,"byteOffset":506464,"target":34963},{"buffer":0,"byteLength":7836,"byteOffset":509332,"byteStride":12,"target":34962},{"buffer":0,"byteLength":10448,"byteOffset":517168,"byteStride":16,"target":34962},{"buffer":0,"byteLength":7836,"byteOffset":527616,"byteStride":12,"target":34962},{"buffer":0,"byteLength":5224,"byteOffset":535452,"byteStride":8,"target":34962},{"buffer":0,"byteLength":2612,"byteOffset":540676,"byteStride":4,"target":34962},{"buffer":0,"byteLength":10448,"byteOffset":543288,"byteStride":16,"target":34962},{"buffer":0,"byteLength":3744,"byteOffset":553736,"target":34963},{"buffer":0,"byteLength":10992,"byteOffset":557480,"byteStride":12,"target":34962},{"buffer":0,"byteLength":14656,"byteOffset":568472,"byteStride":16,"target":34962},{"buffer":0,"byteLength":10992,"byteOffset":583128,"byteStride":12,"target":34962},{"buffer":0,"byteLength":7328,"byteOffset":594120,"byteStride":8,"target":34962},{"buffer":0,"byteLength":3664,"byteOffset":601448,"byteStride":4,"target":34962},{"buffer":0,"byteLength":14656,"byteOffset":605112,"byteStride":16,"target":34962},{"buffer":0,"byteLength":8352,"byteOffset":619768,"target":34963},{"buffer":0,"byteLength":616532,"byteOffset":628120},{"buffer":0,"byteLength":2051981,"byteOffset":1244652},{"buffer":0,"byteLength":425951,"byteOffset":3296633},{"buffer":0,"byteLength":89786,"byteOffset":3722584},{"buffer":0,"byteLength":623068,"byteOffset":3812370},{"buffer":0,"byteLength":2134883,"byteOffset":4435438},{"buffer":0,"byteLength":1360482,"byteOffset":6570321},{"buffer":0,"byteLength":2851796,"byteOffset":7930803},{"buffer":0,"byteLength":267671,"byteOffset":10782599},{"buffer":0,"byteLength":202680,"byteOffset":11050270},{"buffer":0,"byteLength":1816798,"byteOffset":11252950},{"buffer":0,"byteLength":1180680,"byteOffset":13069748},{"buffer":0,"byteLength":2528839,"byteOffset":14250428},{"buffer":0,"byteLength":21241,"byteOffset":16779267},{"buffer":0,"byteLength":21242,"byteOffset":16800508},{"buffer":0,"byteLength":140007,"byteOffset":16821750}],"buffers":[{"byteLength":16961757,"uri":"collector0.bin"}],"extensionsUsed":["GODOT_single_root","KHR_materials_emissive_strength","KHR_materials_unlit"],"images":[{"bufferView":78,"mimeType":"image/png","name":"tex_body_1"},{"bufferView":79,"mimeType":"image/png","name":"tex_body_1_metallic_roughness"},{"bufferView":80,"mimeType":"image/png","name":"tex_body_4"},{"bufferView":81,"mimeType":"image/png","name":"tex_body_4_metallic_roughness"},{"bufferView":82,"mimeType":"image/png","name":"tex_body_4_normal"},{"bufferView":83,"mimeType":"image/png","name":"tex_body_0"},{"bufferView":84,"mimeType":"image/png","name":"tex_body_0_roughness"},{"bufferView":85,"mimeType":"image/png","name":"tex_body_0_normal"},{"bufferView":86,"mimeType":"image/png","name":"tex_cuff"},{"bufferView":87,"mimeType":"image/png","name":"tex_body_1_metallic_roughness_008"},{"bufferView":88,"mimeType":"image/png","name":"tex_coat"},{"bufferView":89,"mimeType":"image/png","name":"tex_coat_metallic_roughness"},{"bufferView":90,"mimeType":"image/png","name":"tex_pipe"},{"bufferView":91,"mimeType":"image/png","name":"tex_pipe_metallic"},{"bufferView":92,"mimeType":"image/png","name":"tex_pipe_height"},{"bufferView":93,"mimeType":"image/png","name":"tex_pipe_inside"}],"materials":[{"name":"Collector1","pbrMetallicRoughness":{"baseColorFactor":[1.0,1.0,1.0,1.0],"baseColorTexture":{"index":0},"metallicFactor":1.0,"metallicRoughnessTexture":{"index":1},"roughnessFactor":1.0}},{"name":"collector4","normalTexture":{"index":4,"scale":1.0},"pbrMetallicRoughness":{"baseColorFactor":[1.0,1.0,1.0,1.0],"baseColorTexture":{"index":2},"metallicFactor":0.0,"metallicRoughnessTexture":{"index":3},"roughnessFactor":1.0}},{"name":"Collector0.001","normalTexture":{"index":7,"scale":1.0},"pbrMetallicRoughness":{"baseColorFactor":[1.0,1.0,1.0,1.0],"baseColorTexture":{"index":5},"metallicFactor":1.0,"metallicRoughnessTexture":{"index":6},"roughnessFactor":1.0}},{"name":"cuff","pbrMetallicRoughness":{"baseColorFactor":[1.0,1.0,1.0,1.0],"baseColorTexture":{"index":8},"metallicFactor":0.0,"metallicRoughnessTexture":{"index":9},"roughnessFactor":1.0}},{"name":"Collector2","pbrMetallicRoughness":{"baseColorFactor":[1.0,1.0,1.0,1.0],"baseColorTexture":{"index":10},"metallicFactor":1.0,"metallicRoughnessTexture":{"index":11},"roughnessFactor":1.0}},{"extensions":{"KHR_materials_unlit":{}},"name":"Material.007","pbrMetallicRoughness":{"baseColorFactor":[0.0,0.0,0.0,1.0],"metallicFactor":0.0,"roughnessFactor":1.0}},{"name":"Collector3","normalTexture":{"index":14,"scale":1.2},"pbrMetallicRoughness":{"baseColorFactor":[1.0,1.0,1.0,1.0],"baseColorTexture":{"index":12},"metallicFactor":1.0,"metallicRoughnessTexture":{"index":13},"roughnessFactor":0.754545}},{"emissiveFactor":[0.8616928,0.3937811,0.0],"emissiveTexture":{"index":16},"extensions":{"KHR_materials_emissive_strength":{"emissiveStrength":3.25}},"name":"Collector-1","pbrMetallicRoughness":{"baseColorFactor":[1.0,1.0,1.0,1.0],"baseColorTexture":{"index":15},"metallicFactor":1.0,"roughnessFactor":0.75}}],"meshes":[{"name":"Plane_006","primitives":[{"attributes":{"JOINTS_0":5,"NORMAL":3,"POSITION":1,"TANGENT":2,"TEXCOORD_0":4,"WEIGHTS_0":6},"indices":7,"material":0,"mode":4},{"attributes":{"JOINTS_0":12,"NORMAL":10,"POSITION":8,"TANGENT":9,"TEXCOORD_0":11,"WEIGHTS_0":13},"indices":14,"material":1,"mode":4},{"attributes":{"JOINTS_0":19,"NORMAL":17,"POSITION":15,"TANGENT":16,"TEXCOORD_0":18,"WEIGHTS_0":20},"indices":21,"material":2,"mode":4}]},{"name":"Cube_028","primitives":[{"attributes":{"JOINTS_0":26,"NORMAL":24,"POSITION":22,"TANGENT":23,"TEXCOORD_0":25,"WEIGHTS_0":27},"indices":28,"material":3,"mode":4}]},{"name":"Plane_014","primitives":[{"attributes":{"JOINTS_0":33,"NORMAL":31,"POSITION":29,"TANGENT":30,"TEXCOORD_0":32,"WEIGHTS_0":34},"indices":35,"material":4,"mode":4}]},{"name":"Cube_023","primitives":[{"attributes":{"JOINTS_0":40,"NORMAL":38,"POSITION":36,"TANGENT":37,"TEXCOORD_0":39,"WEIGHTS_0":41},"indices":42,"material":5,"mode":4}]},{"name":"Cube_021","primitives":[{"attributes":{"JOINTS_0":47,"NORMAL":45,"POSITION":43,"TANGENT":44,"TEXCOORD_0":46,"WEIGHTS_0":48},"indices":49,"material":2,"mode":4}]},{"name":"Plane_001","primitives":[{"attributes":{"JOINTS_0":54,"NORMAL":52,"POSITION":50,"TANGENT":51,"TEXCOORD_0":53,"WEIGHTS_0":55},"indices":56,"material":2,"mode":4}]},{"name":"Cylinder_004","primitives":[{"attributes":{"JOINTS_0":61,"NORMAL":59,"POSITION":57,"TANGENT":58,"TEXCOORD_0":60,"WEIGHTS_0":62},"indices":63,"material":6,"mode":4}]},{"name":"Cylinder_012","primitives":[{"attributes":{"JOINTS_0":68,"NORMAL":66,"POSITION":64,"TANGENT":65,"TEXCOORD_0":67,"WEIGHTS_0":69},"indices":70,"material":7,"mode":4}]},{"name":"Cube_019","primitives":[{"attributes":{"JOINTS_0":75,"NORMAL":73,"POSITION":71,"TANGENT":72,"TEXCOORD_0":74,"WEIGHTS_0":76},"indices":77,"material":0,"mode":4}]}],"nodes":[{"children":[1],"name":"collector"},{"children":[2,3,4,54,55,76,77,78,79,80,81,82,103,104,105,106,107,108,109,110,111],"name":"Armature","scale":[0.239867,0.239867,0.239867]},{"name":"Root"},{"name":"Pelvis_001","rotation":[1.6094019e-08,0.9999018,0.01401452,1.1482684e-06],"translation":[0.32467496,0.35976267,-5.7589946]},{"children":[5,12],"name":"Spine_006","rotation":[0.010113651,0.99953294,0.009577727,0.027202124],"translation":[-7.45058e-09,1.0547566,-0.045440517]},{"children":[6],"name":"Spine_005","rotation":[0.8873229,0.12086058,-0.11050718,0.43109044]},{"children":[7],"name":"Spine_004","rotation":[-0.4206336,-0.06114497,0.14703028,0.8931466],"translation":[4.4703484e-08,0.88834345,7.450581e-09]},{"children":[8],"name":"Spine_003","rotation":[0.24838607,-0.035317335,0.12877104,0.95941395],"translation":[-9.313226e-09,1.0515225,-6.146729e-08]},{"children":[9],"name":"Spine_002","rotation":[-0.17528298,0.027967433,-0.11627248,0.9772279],"translation":[1.8626451e-08,1.2600007,1.4109537e-07]},{"children":[10],"name":"Spine_001","rotation":[-0.12422629,0.010908166,0.054303437,0.99070686],"translation":[-4.656613e-09,0.9983049,5.9604645e-08]},{"children":[11],"name":"Spine","rotation":[0.47228283,-0.024239933,-0.09527687,0.8759473],"translation":[2.188608e-08,0.76005614,-7.0780516e-08]},{"name":"Pelvis","rotation":[-0.2462801,0.015996814,0.10496086,0.9633657],"translation":[-7.7299774e-08,0.68056244,5.085021e-07]},{"children":[13],"name":"Spine_007","rotation":[-0.16001835,0.056862704,-0.16685674,0.9712464],"translation":[-1.2660166e-08,1.9184879,2.3283064e-10]},{"children":[14],"name":"Spine_008","rotation":[0.23564269,-0.002413135,0.22332288,0.9458296],"translation":[-5.061156e-08,0.77229005,2.0861626e-07]},{"children":[15],"name":"Spine_009","rotation":[0.1474146,0.019817008,0.03150606,0.98837423],"translation":[-1.9092113e-08,1.011228,-6.9849193e-09]},{"children":[16],"name":"Spine_010","rotation":[0.08516183,0.9774023,-0.18663403,0.050989132],"translation":[-6.499532e-08,0.5766546,2.2841476e-07]},{"children":[17],"name":"Spine_011","rotation":[0.10948659,3.1866435e-08,4.3206597e-08,0.9939883],"translation":[-4.440892e-15,0.5816457,-1.4901165e-08]},{"children":[18,33,38,43,45,49,53],"name":"Spine_012","rotation":[-0.004347694,1.9435594e-15,-1.0365708e-09,0.9999905],"translation":[-2.6645353e-15,0.9942131,-3.7252907e-08]},{"children":[19,26,27],"name":"Neck","rotation":[-0.0049831658,2.490334e-05,0.004984381,0.99997514],"translation":[-1.15463195e-14,1.0158231,5.960464e-08]},{"children":[20,22,25],"name":"Head","rotation":[0.043052286,-0.0018053429,0.03190305,0.9985617],"translation":[6.53381e-09,0.65809256,-1.760654e-08]},{"children":[21],"name":"Hat","rotation":[-0.007444549,0.000275023,-0.036913194,0.9992907],"translation":[-0.08452965,1.0733085,-2.1734884e-07]},{"name":"Brim","rotation":[0.7388317,-3.75213e-09,1.7268113e-07,0.67389005]},{"children":[23,24],"name":"Teeth top","rotation":[0.71611834,-0.0264527,-0.02574642,0.69700205],"translation":[-0.015868096,0.6892375,-0.29116678]},{"name":"Teeth_R","translation":[-0.28531513,0.020830052,0.08600689]},{"name":"Teeth_L","translation":[0.2981312,0.020830054,0.086007416]},{"name":"Teeth Bottom","rotation":[0.8075398,-0.0298297,-0.02174404,0.58865684],"translation":[-0.022490667,0.5997193,-0.3011888]},{"name":"Cape","rotation":[-0.062136684,0.00030953687,-0.004974822,0.9980552],"translation":[0.0020025063,0.2008664,-0.05105748]},{"children":[28,29,30,31,32],"name":"fnfmodding_hollywood","rotation":[-0.062136676,0.00030954112,-0.004974755,0.9980552],"translation":[3.3231273,1.938772,-0.16421643]},{"name":"armikR_slider","translation":[-1.4115359,2.9730337,3.0989037e-07]},{"name":"armikL_slider","translation":[1.3603404,2.9730334,4.4389967e-07]},{"name":"handParentR_slider","translation":[-1.4115361,0.80826163,3.4092034e-07]},{"name":"handParentL_slider","translation":[1.3603401,0.80826133,4.749296e-07]},{"name":"handParentL_slider_001","translation":[-0.5375916,-1.779519,1.0442935e-07]},{"children":[34,37],"name":"Collar_R","rotation":[0.072404884,0.011027405,0.5906162,0.80362207],"translation":[-0.116254285,0.7573267,-0.10234122]},{"children":[35],"name":"Arm_R","rotation":[0.7112816,-0.696494,-0.0075837914,0.09443058],"translation":[-0.21713974,0.6371862,0.08659144]},{"children":[36],"name":"Forearm_R","rotation":[-0.041704923,-1.82466e-05,0.0045230994,0.9991197],"translation":[3.3550896e-07,2.644862,-4.8428774e-08]},{"name":"Bigcuff_R","rotation":[0.04021614,-0.00899201,0.77816135,0.626711],"translation":[9.9884346e-08,1.897318,6.519258e-09]},{"name":"Cape_R","rotation":[0.72122866,-0.6804485,-0.015854534,0.12871556],"translation":[0.018295757,0.94955397,0.21154323]},{"children":[39,42],"name":"Collar_L","rotation":[0.072405025,-0.011027614,-0.590616,0.8036222],"translation":[0.11625432,0.7573267,-0.10234116]},{"children":[40],"name":"Arm_L","rotation":[0.7112816,0.696494,0.0075838096,0.09443061],"translation":[0.21713918,0.63718575,0.08659133]},{"children":[41],"name":"Forearm_L","rotation":[-0.041704934,1.818473e-05,-0.0045231213,0.9991197],"translation":[-4.6472996e-07,2.6448617,-1.1175871e-08]},{"name":"Bigcuff_L","rotation":[0.040216137,0.008992086,-0.77816135,0.626711],"translation":[1.9557774e-07,1.8973184,5.5879354e-09]},{"name":"Cape_L","rotation":[0.72122866,0.6804485,0.015854487,0.12871566],"translation":[-0.01829587,0.9495535,0.21154325]},{"children":[44],"name":"Cape_001","rotation":[0.99995744,2.19915e-09,1.1540739e-14,-0.009223902],"translation":[1.1480822e-07,0.5268175,-0.48154044]},{"name":"Cape_002","rotation":[-0.032631293,-2.7964755e-14,7.779906e-09,0.9994675],"translation":[5.062617e-14,1.8922317,-5.960464e-08]},{"children":[46],"name":"Cape_L_001","rotation":[0.9959658,0.0857816,0.0038113752,0.026059467],"translation":[0.98467493,-0.5076928,-0.3829876]},{"children":[47],"name":"Cape_L_002","rotation":[-0.1304215,-0.010887216,0.11043,0.9852294],"translation":[5.401671e-08,1.3097818,1.4249235e-07]},{"children":[48],"name":"Cape_L_003","rotation":[0.07515282,0.044053692,-0.3052716,0.9482724],"translation":[-1.3038516e-08,2.7199633,2.7474016e-08]},{"name":"Cape_L_004","rotation":[-0.18728541,1.5142358e-07,-0.09270739,0.977921],"translation":[-4.5867637e-08,1.8528184,1.8626451e-09]},{"children":[50],"name":"Cape_R_001","rotation":[0.9959658,-0.0857819,-0.003809848,0.02605932],"translation":[-0.9846748,-0.50769335,-0.38298807]},{"children":[51],"name":"Cape_R_002","rotation":[-0.1304211,0.010887021,-0.11042931,0.9852295],"translation":[3.6135316e-07,1.3097816,8.381903e-08]},{"children":[52],"name":"Cape_R_003","rotation":[0.07515171,-0.044053737,0.30526948,0.9482732],"translation":[-8.032657e-08,2.719961,-1.2572855e-08]},{"name":"Cape_R_004","rotation":[-0.18728575,3.1427536e-08,0.092706814,0.977921],"translation":[-1.6624108e-07,1.8528172,-6.519258e-09]},{"name":"Capemain","rotation":[-0.002192208,6.154868e-15,-5.22663e-10,0.9999976],"translation":[8.376677e-09,0.7896212,-0.035134207]},{"name":"Pipe","rotation":[0.75752825,0.26018816,-0.38320628,0.46000654],"translation":[0.040062025,8.879335,0.31792644]},{"children":[56],"name":"Forearm_L_001","rotation":[0.9858319,0.16541506,0.023985242,0.014072405],"translation":[2.0253294,3.0804417,-0.011203762]},{"children":[57],"name":"Hand_L","rotation":[0.0178669,0.00040221846,-0.00016017733,0.99984026],"translation":[1.0318945e-07,0.3309518,-5.8789738e-09]},{"children":[58,61,73],"name":"Index_L","rotation":[-0.12134728,0.061649915,-0.0068681054,0.99066997],"translation":[0.07723678,0.045984488,-0.15737635]},{"children":[59],"name":"Index_L_001","rotation":[0.007023754,0.0001444893,0.046432063,0.9988968],"translation":[-2.30968e-07,0.42326218,8.940697e-08]},{"children":[60],"name":"Index_L_002","rotation":[-0.0049007586,1.6764225e-05,-0.026213422,0.99964434],"translation":[7.450581e-09,0.19409701,-4.4703484e-08]},{"name":"Index_L_003","rotation":[0.005176886,2.476572e-05,-0.014122778,0.9998869],"translation":[-3.7252903e-08,0.20610903,-1.4901161e-08]},{"children":[62,65],"name":"Middle_L","rotation":[0.09222944,-0.039463844,-0.03414876,0.99436927],"translation":[-0.019444102,-0.007276682,0.10431493]},{"children":[63],"name":"Middle_L_001","rotation":[-0.0056270445,-0.005440803,0.040245365,0.99915916],"translation":[3.0267984e-08,0.43274105,1.4901161e-08]},{"children":[64],"name":"Middle_L_002","rotation":[-0.0015940754,-0.001026051,-0.019440424,0.9998092],"translation":[5.136244e-07,0.23153067,-3.7252903e-09]},{"name":"Middle_L_003","rotation":[0.0038266694,0.006723418,-0.014547038,0.9998643],"translation":[1.8114224e-07,0.20610943,2.514571e-08]},{"children":[66,69],"name":"Ring_L","rotation":[0.07450174,-0.061653636,0.0020143364,0.99531114],"translation":[-0.020910777,-0.017601125,0.1250338]},{"children":[67],"name":"Ring_L_001","rotation":[-0.036073133,-0.0026680387,0.041947603,0.9984648],"translation":[2.9616058e-07,0.43083698,-1.1175871e-08]},{"children":[68],"name":"Ring_L_002","rotation":[-0.0041878503,-0.015618937,-0.019051047,0.99968773],"translation":[-3.380701e-07,0.23153073,5.5879354e-09]},{"name":"Ring_L_003","rotation":[0.0014222206,-0.006652169,-0.014974733,0.99986476],"translation":[-2.9802322e-07,0.20610943,7.450581e-09]},{"children":[70],"name":"Pinky_L","rotation":[0.04205581,0.0018975488,0.03677848,0.9984363],"translation":[-0.017042022,0.019686552,0.13065724]},{"children":[71],"name":"Pinky_L_001","rotation":[-0.044930648,-0.039039567,0.044126067,0.9972513],"translation":[-8.8475645e-08,0.38175604,0.0]},{"children":[72],"name":"Pinky_L_002","rotation":[-0.0015792005,-0.008803955,-0.024069665,0.99967027],"translation":[4.0978193e-08,0.19198756,5.5879354e-08]},{"name":"Pinky_L_003","rotation":[0.0009221664,0.0069663217,-0.015013307,0.9998626],"translation":[-1.0058284e-07,0.20610918,-2.2351742e-08]},{"children":[74],"name":"Thumb_L","rotation":[-0.25066423,0.6540044,-0.052692078,0.7118071],"translation":[-0.1160277,-0.07513424,-0.015444443]},{"children":[75],"name":"Thumb_L_001","rotation":[0.017349077,0.043754935,0.057187755,0.9972533],"translation":[2.9802322e-08,0.29687423,3.1292439e-07]},{"name":"Thumb_L_002","rotation":[0.014157787,0.022511221,0.005085154,0.99963343],"translation":[2.9802322e-08,0.20610838,-1.7881393e-07]},{"name":"Spine_013","rotation":[0.0027755767,-0.014281352,0.99989414,-3.9643146e-05],"translation":[0.1470585,-0.08917469,-3.9088917]},{"name":"Spine_014","rotation":[0.022511,-0.00780978,0.9997161,-0.00017585629],"translation":[-0.24940118,0.1148808,-1.7459033]},{"name":"Forearm_R_002","rotation":[-0.71311206,0.07980021,-0.082280464,0.69161624],"translation":[-2.0253294,3.0804417,-0.011203762]},{"name":"Forearm_L_002","rotation":[-0.71311206,-0.07980021,0.082280464,0.69161624],"translation":[2.0253294,3.0804417,-0.011203762]},{"name":"Arm_R_001","rotation":[-0.7043949,0.08139203,-0.08186114,0.70035845],"translation":[-1.4977385,4.902083,-4.895599]},{"name":"Arm_L_001","rotation":[-0.7043949,-0.08139203,0.08186114,0.70035845],"translation":[1.4977385,4.902083,-4.895599]},{"children":[83],"name":"Forearm_R_001","rotation":[0.9858319,-0.16541506,-0.023985242,0.014072405],"translation":[-2.0253294,3.0804417,-0.011203762]},{"children":[84],"name":"Hand_R","rotation":[0.0178669,-0.00040221846,0.00016017733,0.99984026],"translation":[-1.0318945e-07,0.3309518,-5.8789738e-09]},{"children":[85,88,100],"name":"Index_R","rotation":[-0.12134728,-0.061649915,0.0068681054,0.99066997],"translation":[-0.07723678,0.045984488,-0.15737635]},{"children":[86],"name":"Index_R_001","rotation":[0.007023754,-0.0001444893,-0.046432063,0.9988968],"translation":[2.30968e-07,0.42326218,8.940697e-08]},{"children":[87],"name":"Index_R_002","rotation":[-0.0049007586,-1.6764225e-05,0.026213422,0.99964434],"translation":[-7.450581e-09,0.19409701,-4.4703484e-08]},{"name":"Index_R_003","rotation":[0.005176886,-2.476572e-05,0.014122778,0.9998869],"translation":[3.7252903e-08,0.20610903,-1.4901161e-08]},{"children":[89,92],"name":"Middle_R","rotation":[0.09222944,0.039463844,0.03414876,0.99436927],"translation":[0.019444102,-0.007276682,0.10431493]},{"children":[90],"name":"Middle_R_001","rotation":[-0.0056270445,0.005440803,-0.040245365,0.99915916],"translation":[-3.0267984e-08,0.43274105,1.4901161e-08]},{"children":[91],"name":"Middle_R_002","rotation":[-0.0015940754,0.001026051,0.019440424,0.9998092],"translation":[-5.136244e-07,0.23153067,-3.7252903e-09]},{"name":"Middle_R_003","rotation":[0.0038266694,-0.006723418,0.014547038,0.9998643],"translation":[-1.8114224e-07,0.20610943,2.514571e-08]},{"children":[93,96],"name":"Ring_R","rotation":[0.07450174,0.061653636,-0.0020143364,0.99531114],"translation":[0.020910777,-0.017601125,0.1250338]},{"children":[94],"name":"Ring_R_001","rotation":[-0.036073133,0.0026680387,-0.041947603,0.9984648],"translation":[-2.9616058e-07,0.43083698,-1.1175871e-08]},{"children":[95],"name":"Ring_R_002","rotation":[-0.0041878503,0.015618937,0.019051047,0.99968773],"translation":[3.380701e-07,0.23153073,5.5879354e-09]},{"name":"Ring_R_003","rotation":[0.0014222206,0.006652169,0.014974733,0.99986476],"translation":[2.9802322e-07,0.20610943,7.450581e-09]},{"children":[97],"name":"Pinky_R","rotation":[0.04205581,-0.0018975488,-0.03677848,0.9984363],"translation":[0.017042022,0.019686552,0.13065724]},{"children":[98],"name":"Pinky_R_001","rotation":[-0.044930648,0.039039567,-0.044126067,0.9972513],"translation":[8.8475645e-08,0.38175604,0.0]},{"children":[99],"name":"Pinky_R_002","rotation":[-0.0015792005,0.008803955,0.024069665,0.99967027],"translation":[-4.0978193e-08,0.19198756,5.5879354e-08]},{"name":"Pinky_R_003","rotation":[0.0009221664,-0.0069663217,0.015013307,0.9998626],"translation":[1.0058284e-07,0.20610918,-2.2351742e-08]},{"children":[101],"name":"Thumb_R","rotation":[-0.25066423,-0.6540044,0.052692078,0.7118071],"translation":[0.1160277,-0.07513424,-0.015444443]},{"children":[102],"name":"Thumb_R_001","rotation":[0.017349077,-0.043754935,-0.057187755,0.9972533],"translation":[-2.9802322e-08,0.29687423,3.1292439e-07]},{"name":"Thumb_R_002","rotation":[0.014157787,-0.022511221,-0.005085154,0.99963343],"translation":[-2.9802322e-08,0.20610838,-1.7881393e-07]},{"mesh":0,"name":"Body_001","skin":0},{"mesh":1,"name":"Body_004","skin":0},{"mesh":2,"name":"Coat_001","skin":0},{"mesh":3,"name":"Cube_008","skin":0},{"mesh":4,"name":"Hands_001","skin":0},{"mesh":5,"name":"Hat_001","skin":0},{"mesh":6,"name":"Pipe_002","skin":0},{"mesh":7,"name":"Pipe_003","skin":0},{"mesh":8,"name":"Teeth_001","skin":0}],"samplers":[{"magFilter":9729,"minFilter":9987,"wrapS":10497,"wrapT":10497}],"scene":0,"scenes":[{"name":"collector","nodes":[0]}],"skins":[{"inverseBindMatrices":0,"joints":[2,3,4,5,6,7,8,9,10,11,12,13,14,15,16,17,18,19,20,21,22,23,24,25,26,27,28,29,30,31,32,33,34,35,36,37,38,39,40,41,42,43,44,45,46,47,48,49,50,51,52,53,54,55,56,57,58,59,60,61,62,63,64,65,66,67,68,69,70,71,72,73,74,75,76,77,78,79,80,81,82,83,84,85,86,87,88,89,90,91,92,93,94,95,96,97,98,99,100,101,102],"name":"Skin"}],"textures":[{"sampler":0,"source":0},{"sampler":0,"source":1},{"sampler":0,"source":2},{"sampler":0,"source":3},{"sampler":0,"source":4},{"sampler":0,"source":5},{"sampler":0,"source":6},{"sampler":0,"source":7},{"sampler":0,"source":8},{"sampler":0,"source":9},{"sampler":0,"source":10},{"sampler":0,"source":11},{"sampler":0,"source":12},{"sampler":0,"source":13},{"sampler":0,"source":14},{"sampler":0,"source":15},{"sampler":0,"source":15}]}