{"accessors":[{"bufferView":0,"componentType":5126,"count":5,"max":[1.0,0.0,0.0,0.0,0.0,1.0,1.0,0.0,8.742278e-08,1.0,1.0,0.0,1.3545741e-15,1.4901161e-08,0.0,1.0],"min":[-1.0,-8.742279e-08,-8.742278e-08,0.0,-8.742276e-08,-1.0000001,0.0,0.0,-8.742278e-08,-2.1696258e-07,-1.0,0.0,-5.137057e-16,-1.4901161e-08,-3.8542614e-09,1.0],"normalized":false,"type":"MAT4"},{"bufferView":1,"componentType":5126,"count":101,"max":[3.6940176,3.5006998,3.6049688,0.0,3.4473133,3.6940138,3.5955024,0.0,3.0720568,3.590219,3.6940138,0.0,6.786702,7.2706385,8.918059,1.0],"min":[-3.6940172,-3.5007,-3.6049688,0.0,-3.4473126,-3.6935635,-3.6740057,0.0,-3.0720568,-3.6939528,-3.693972,0.0,-6.786703,-12.68487,-6.570665,1.0],"normalized":false,"type":"MAT4"},{"bufferView":2,"componentType":5126,"count":826,"max":[0.37513193,0.25475833,0.09141475],"min":[-0.37503514,-0.23692875,-0.09141475],"normalized":false,"type":"VEC3"},{"bufferView":3,"componentType":5126,"count":826,"max":[1.0,1.0,1.0,1.0],"min":[-1.0,-0.9999736,-1.0,-1.0],"normalized":false,"type":"VEC4"},{"bufferView":4,"componentType":5126,"count":826,"max":[1.0,1.0,1.0],"min":[-1.0,-1.0,-1.0],"normalized":false,"type":"VEC3"},{"bufferView":5,"componentType":5126,"count":826,"max":[0.9876395,0.98923016],"min":[0.015275653,0.008528888],"normalized":false,"type":"VEC2"},{"bufferView":6,"componentType":5121,"count":826,"max":[4,0,0,0],"min":[2,0,0,0],"normalized":false,"type":"VEC4"},{"bufferView":7,"componentType":5126,"count":826,"max":[1.0,0.0,0.0,0.0],"min":[1.0,0.0,0.0,0.0],"normalized":false,"type":"VEC4"},{"bufferView":8,"componentType":5123,"count":2460,"max":[825],"min":[0],"normalized":false,"type":"SCALAR"},{"bufferView":9,"componentType":5126,"count":196,"max":[0.6242265,0.8620658,-0.15553741],"min":[-0.6242265,0.7541256,-0.29009074],"normalized":false,"type":"VEC3"},{"bufferView":10,"componentType":5126,"count":196,"max":[0.9949074,0.9903316,0.33386156,1.0],"min":[-0.99490196,-0.9736018,-0.9079456,-1.0],"normalized":false,"type":"VEC4"},{"bufferView":11,"componentType":5126,"count":196,"max":[0.9790165,0.99882454,0.96451896],"min":[-0.9790251,-0.9745731,-0.9714704],"normalized":false,"type":"VEC3"},{"bufferView":12,"componentType":5126,"count":196,"max":[0.9638469,0.9543976],"min":[0.02847156,0.06671828],"normalized":false,"type":"VEC2"},{"bufferView":13,"componentType":5121,"count":196,"max":[81,81,0,0],"min":[53,0,0,0],"normalized":false,"type":"VEC4"},{"bufferView":14,"componentType":5126,"count":196,"max":[1.0,0.48945588,0.0,0.0],"min":[0.5105442,0.0,0.0,0.0],"normalized":false,"type":"VEC4"},{"bufferView":15,"componentType":5121,"count":1056,"max":[195],"min":[0],"normalized":false,"type":"SCALAR"},{"bufferView":16,"componentType":5126,"count":1672,"max":[0.7227815,0.79148954,-0.052156284],"min":[-0.7227815,0.45795906,-0.3164942],"normalized":false,"type":"VEC3"},{"bufferView":17,"componentType":5126,"count":1672,"max":[0.99261343,0.973673,0.99937046,1.0],"min":[-0.9926044,-0.992246,-0.9922614,-1.0],"normalized":false,"type":"VEC4"},{"bufferView":18,"componentType":5126,"count":1672,"max":[0.99932534,0.960573,0.9935076],"min":[-0.99932396,-0.9887126,-0.9940076],"normalized":false,"type":"VEC3"},{"bufferView":19,"componentType":5126,"count":1672,"max":[0.6301602,0.9793912],"min":[0.01893039,0.1511643],"normalized":false,"type":"VEC2"},{"bufferView":20,"componentType":5121,"count":1672,"max":[100,100,100,100],"min":[54,0,0,0],"normalized":false,"type":"VEC4"},{"bufferView":21,"componentType":5126,"count":1672,"max":[1.0,0.49993896,0.3063037,0.22703065],"min":[0.28428426,0.0,0.0,0.0],"normalized":false,"type":"VEC4"},{"bufferView":22,"componentType":5123,"count":8004,"max":[1671],"min":[0],"normalized":false,"type":"SCALAR"}],"asset":{"copyright":"The Creators of 'Friday Night Funkin': Lullaby'","generator":"GDRE Tools vv2.6.3","version":"2.0"},"bufferViews":[{"buffer":0,"byteLength":320},{"buffer":0,"byteLength":6464,"byteOffset":320},{"buffer":0,"byteLength":9912,"byteOffset":6784,"byteStride":12,"target":34962},{"buffer":0,"byteLength":13216,"byteOffset":16696,"byteStride":16,"target":34962},{"buffer":0,"byteLength":9912,"byteOffset":29912,"byteStride":12,"target":34962},{"buffer":0,"byteLength":6608,"byteOffset":39824,"byteStride":8,"target":34962},{"buffer":0,"byteLength":3304,"byteOffset":46432,"byteStride":4,"target":34962},{"buffer":0,"byteLength":13216,"byteOffset":49736,"byteStride":16,"target":34962},{"buffer":0,"byteLength":4920,"byteOffset":62952,"target":34963},{"buffer":0,"byteLength":2352,"byteOffset":67872,"byteStride":12,"target":34962},{"buffer":0,"byteLength":3136,"byteOffset":70224,"byteStride":16,"target":34962},{"buffer":0,"byteLength":2352,"byteOffset":73360,"byteStride":12,"target":34962},{"buffer":0,"byteLength":1568,"byteOffset":75712,"byteStride":8,"target":34962},{"buffer":0,"byteLength":784,"byteOffset":77280,"byteStride":4,"target":34962},{"buffer":0,"byteLength":3136,"byteOffset":78064,"byteStride":16,"target":34962},{"buffer":0,"byteLength":1056,"byteOffset":81200,"target":34963},{"buffer":0,"byteLength":20064,"byteOffset":82256,"byteStride":12,"target":34962},{"buffer":0,"byteLength":26752,"byteOffset":102320,"byteStride":16,"target":34962},{"buffer":0,"byteLength":20064,"byteOffset":129072,"byteStride":12,"target":34962},{"buffer":0,"byteLength":13376,"byteOffset":149136,"byteStride":8,"target":34962},{"buffer":0,"byteLength":6688,"byteOffset":162512,"byteStride":4,"target":34962},{"buffer":0,"byteLength":26752,"byteOffset":169200,"byteStride":16,"target":34962},{"buffer":0,"byteLength":16008,"byteOffset":195952,"target":34963},{"buffer":0,"byteLength":573280,"byteOffset":211960},{"buffer":0,"byteLength":624623,"byteOffset":785240},{"buffer":0,"byteLength":1000006,"byteOffset":1409863},{"buffer":0,"byteLength":141162,"byteOffset":2409869},{"buffer":0,"byteLength":2177841,"byteOffset":2551031},{"buffer":0,"byteLength":1705039,"byteOffset":4728872},{"buffer":0,"byteLength":1374604,"byteOffset":6433911},{"buffer":0,"byteLength":2844815,"byteOffset":7808515}],"buffers":[{"byteLength":10653330,"uri":"introFIRST0.bin"}],"extensionsUsed":["GODOT_single_root","KHR_materials_emissive_strength"],"images":[{"bufferView":23,"mimeType":"image/png","name":"cardboardmarker1_BaseColor"},{"bufferView":24,"mimeType":"image/png","name":"cardboardmarker_orm"},{"bufferView":25,"mimeType":"image/png","name":"cardboardmarker_Normal"},{"bufferView":26,"mimeType":"image/png","name":"cardboardmarker1_Emission"},{"bufferView":27,"mimeType":"image/png"},{"bufferView":28,"mimeType":"image/png","name":"tex_body_1_metallic_roughness"},{"bufferView":29,"mimeType":"image/png","name":"tex_body_0_roughness"},{"bufferView":30,"mimeType":"image/png","name":"tex_body_0_normal"}],"materials":[{"emissiveFactor":[1.0,1.0,1.0],"emissiveTexture":{"index":3},"extensions":{"KHR_materials_emissive_strength":{"emissiveStrength":3.0}},"name":"cardboardmarker","normalTexture":{"index":2,"scale":1.0},"pbrMetallicRoughness":{"baseColorFactor":[1.0,1.0,1.0,1.0],"baseColorTexture":{"index":0},"metallicFactor":1.0,"metallicRoughnessTexture":{"index":1},"roughnessFactor":1.0}},{"name":"cuff","pbrMetallicRoughness":{"baseColorFactor":[1.0,1.0,1.0,1.0],"baseColorTexture":{"index":4},"metallicFactor":0.0,"metallicRoughnessTexture":{"index":5},"roughnessFactor":1.0}},{"name":"Collector0_001","normalTexture":{"index":8,"scale":1.0},"pbrMetallicRoughness":{"baseColorFactor":[1.0,1.0,1.0,1.0],"baseColorTexture":{"index":6},"metallicFactor":1.0,"metallicRoughnessTexture":{"index":7},"roughnessFactor":1.0}}],"meshes":[{"name":"intro_Intro Scene_Cylinder_017","primitives":[{"attributes":{"JOINTS_0":6,"NORMAL":4,"POSITION":2,"TANGENT":3,"TEXCOORD_0":5,"WEIGHTS_0":7},"indices":8,"material":0,"mode":4}]},{"name":"introFIRST_introFIRST_introFIRST_introFIRST_introFIRST_introFIRST_introFIRST_introFIRST_introFIRST_introFIRST_introFIRST_introFIRST_introFIRST_Intro Scene_Cube_003","primitives":[{"attributes":{"JOINTS_0":13,"NORMAL":11,"POSITION":9,"TANGENT":10,"TEXCOORD_0":12,"WEIGHTS_0":14},"indices":15,"material":1,"mode":4}]},{"name":"introFIRST_introFIRST_introFIRST_introFIRST_introFIRST_introFIRST_introFIRST_introFIRST_introFIRST_introFIRST_introFIRST_introFIRST_introFIRST_Intro Scene_Cube_005","primitives":[{"attributes":{"JOINTS_0":20,"NORMAL":18,"POSITION":16,"TANGENT":17,"TEXCOORD_0":19,"WEIGHTS_0":21},"indices":22,"material":2,"mode":4}]}],"nodes":[{"children":[1,8],"name":"Intro Scene"},{"children":[2,7],"name":"Armature_002"},{"children":[3,5],"name":"CardboardRoot","rotation":[0.0,0.70710677,0.70710677,0.0]},{"children":[4],"name":"CardboardSign","rotation":[0.5223737,0.48521546,-0.51158196,-0.47955775],"translation":[-1.1739421,-0.05304593,0.9288559]},{"name":"CardboardSign_OFFSET","rotation":[-0.4969744,0.52927655,0.49130484,-0.4811469],"translation":[0.0023391247,0.44892877,-0.031102117]},{"children":[6],"name":"Marker","rotation":[0.097128056,0.695898,-0.6166193,0.35506728],"translation":[0.7748914,-0.13643694,0.56599045]},{"name":"Marker_OFFSET","rotation":[0.072690666,-0.32699278,-0.19106394,0.9226518],"translation":[0.008858998,0.12954727,-0.08381619]},{"mesh":0,"name":"Cylinder","skin":0},{"children":[9,10,11,61,62,83,84,85,86,87,88,89,110,111],"name":"Armature","scale":[0.270708,0.27070823,0.27070823],"translation":[0.0,0.0,-0.217694]},{"name":"Root"},{"name":"Pelvis_001","rotation":[1.6093974e-08,0.9999018,0.014014572,1.1482637e-06],"translation":[0.32467496,0.35976267,-5.758995]},{"children":[12,19],"name":"Spine_006","rotation":[0.010113645,0.99953294,0.009577702,0.027202096],"translation":[-7.450581e-09,1.0547568,-0.045440495]},{"children":[13],"name":"Spine_005","rotation":[0.8648432,0.062943086,-0.057161044,0.49478987]},{"children":[14],"name":"Spine_004","rotation":[-0.003424872,-0.055771913,0.001485509,0.99843657],"translation":[3.7252903e-08,0.88834345,4.004687e-08]},{"children":[15],"name":"Spine_003","rotation":[-0.09726846,-0.067806914,0.20715818,0.97109556],"translation":[-3.9115548e-08,1.0515223,-2.7939677e-09]},{"children":[16],"name":"Spine_002","rotation":[-0.16513668,0.0562471,-0.048493337,0.9834707],"translation":[8.568168e-08,1.2600007,-1.5599653e-07]},{"children":[17],"name":"Spine_001","rotation":[-0.2586574,0.011316868,0.050756823,0.9645683],"translation":[-2.0489097e-08,0.9983049,-4.4703484e-08]},{"children":[18],"name":"Spine","rotation":[0.41230458,-0.02392621,-0.098323636,0.90540874],"translation":[1.18045136e-07,0.760056,-1.1175871e-08]},{"name":"Pelvis","rotation":[-0.28041577,0.012080955,0.10690412,0.9538305],"translation":[7.0780516e-08,0.6805629,7.47852e-07]},{"children":[20],"name":"Spine_007","rotation":[-0.16001835,0.056862697,-0.16685674,0.9712464],"translation":[0.0,1.9184883,1.1944212e-07]},{"children":[21],"name":"Spine_008","rotation":[0.23564264,-0.002413141,0.22332294,0.9458296],"translation":[2.3347093e-07,0.7722896,-1.937151e-07]},{"children":[22],"name":"Spine_009","rotation":[0.14741461,0.019816974,0.031506006,0.98837423],"translation":[-5.9604645e-08,1.0112284,3.678724e-08]},{"children":[23],"name":"Spine_010","rotation":[0.08516181,0.9774023,-0.1866341,0.05098914],"translation":[-1.3111924e-07,0.57665384,3.0292057e-07]},{"children":[24],"name":"Spine_011","rotation":[0.10948659,3.186643e-08,4.3206605e-08,0.9939883],"translation":[-2.3980817e-14,0.58164465,-8.940697e-08]},{"children":[25,40,45,50,52,56,60],"name":"Spine_012","rotation":[-0.0043477276,2.2623179e-15,-1.0365774e-09,0.9999905],"translation":[-3.8191672e-14,0.99421406,1.1920928e-07]},{"children":[26,33,34],"name":"Neck","rotation":[-0.0049831807,2.4903404e-05,0.0049844193,0.99997514],"translation":[-5.2402527e-14,1.0158225,1.7881393e-07]},{"children":[27,29,32],"name":"Head","rotation":[0.043052286,-0.0018053487,0.031903043,0.9985617],"translation":[-8.731149e-10,0.6580919,1.1650358e-07]},{"children":[28],"name":"Hat","rotation":[-0.007444533,0.00027502218,-0.03691324,0.9992907],"translation":[-0.0845297,1.0733093,-1.8791047e-07]},{"name":"Brim","rotation":[0.73883176,-3.7521626e-09,1.7268107e-07,0.67388994]},{"children":[30,31],"name":"Teeth top","rotation":[0.7161184,-0.0264527,-0.025746418,0.69700205],"translation":[-0.015868085,0.6892383,-0.29116693]},{"name":"Teeth_R","translation":[-0.28531507,0.0208302,0.08600662]},{"name":"Teeth_L","translation":[0.29813117,0.020830164,0.086007155]},{"name":"Teeth Bottom","rotation":[0.8075398,-0.029829653,-0.021744044,0.58865684],"translation":[-0.022490716,0.59971917,-0.30118868]},{"name":"Cape","rotation":[-0.06213673,0.00030953632,-0.004974825,0.9980552],"translation":[0.0020025077,0.2008667,-0.05105734]},{"children":[35,36,37,38,39],"name":"fnfmodding_hollywood","rotation":[-0.06213673,0.00030954066,-0.0049747587,0.9980552],"translation":[3.323128,1.9387732,-0.16421641]},{"name":"armikR_slider","translation":[-1.4115356,2.973034,2.949892e-07]},{"name":"armikL_slider","translation":[1.3603406,2.9730334,4.2899853e-07]},{"name":"handParentR_slider","translation":[-1.4115359,0.8082627,3.1111801e-07]},{"name":"handParentL_slider","translation":[1.3603404,0.8082624,4.451273e-07]},{"name":"handParentL_slider_001","translation":[-0.53759134,-1.7795188,1.5022376e-08]},{"children":[41,44],"name":"Collar_R","rotation":[0.072404884,0.011027382,0.5906162,0.80362207],"translation":[-0.11625426,0.75732654,-0.102341324]},{"children":[42],"name":"Arm_R","rotation":[0.7118109,-0.6936375,0.008273132,0.11010846],"translation":[-0.21713905,0.63718593,0.08659143]},{"children":[43],"name":"Forearm_R","rotation":[-0.04171947,-1.8243305e-05,0.004524672,0.9991191],"translation":[-3.7252903e-09,2.6448622,3.3527613e-08]},{"name":"Bigcuff_R","rotation":[0.040216118,-0.008992141,0.7781614,0.62671095],"translation":[1.0430813e-07,1.8973185,7.450581e-09]},{"name":"Cape_R","rotation":[0.72122866,-0.6804485,-0.015854394,0.12871557],"translation":[0.01829648,0.9495536,0.21154317]},{"children":[46,49],"name":"Collar_L","rotation":[0.07240507,-0.011027662,-0.590616,0.8036222],"translation":[0.11625431,0.75732654,-0.102341264]},{"children":[47],"name":"Arm_L","rotation":[0.71181047,0.69363767,-0.008271525,0.11011007],"translation":[0.21713941,0.6371858,0.08659156]},{"children":[48],"name":"Forearm_L","rotation":[-0.04170504,1.8184575e-05,-0.0045231474,0.9991197],"translation":[2.2351742e-08,2.6448622,-1.1175871e-08]},{"name":"Bigcuff_L","rotation":[0.04021599,0.0089921765,-0.77816135,0.626711],"translation":[-4.0978193e-08,1.8973185,4.4703484e-08]},{"name":"Cape_L","rotation":[0.72122866,0.6804485,0.015854618,0.12871565],"translation":[-0.018296123,0.94955355,0.21154338]},{"children":[51],"name":"Cape_001","rotation":[0.99995744,2.1991549e-09,1.58387e-15,-0.009223911],"translation":[1.1480822e-07,0.5268169,-0.4815405]},{"name":"Cape_002","rotation":[-0.03263128,-2.535434e-14,7.7798825e-09,0.9994675],"translation":[8.881784e-15,1.8922311,3.5527137e-15]},{"children":[53],"name":"Cape_L_001","rotation":[0.9959658,0.08578183,0.0038113878,0.026059512],"translation":[0.9846749,-0.5076934,-0.3829876]},{"children":[54],"name":"Cape_L_002","rotation":[-0.13042147,-0.010887213,0.11043009,0.9852294],"translation":[-8.940697e-08,1.3097813,-6.519258e-09]},{"children":[55],"name":"Cape_L_003","rotation":[0.075152814,0.044053704,-0.3052716,0.9482724],"translation":[6.239861e-08,2.7199626,1.2572855e-08]},{"name":"Cape_L_004","rotation":[-0.18728553,1.7237527e-07,-0.09270743,0.977921],"translation":[-9.313226e-08,1.8528184,6.519258e-08]},{"children":[57],"name":"Cape_R_001","rotation":[0.9959658,-0.0857819,-0.0038098476,0.02605932],"translation":[-0.98467475,-0.50769395,-0.38298807]},{"children":[58],"name":"Cape_R_002","rotation":[-0.13042113,0.010887023,-0.110429324,0.9852295],"translation":[-1.0058284e-07,1.3097813,2.0395964e-07]},{"children":[59],"name":"Cape_R_003","rotation":[0.0751517,-0.044053722,0.3052695,0.9482732],"translation":[6.891787e-08,2.7199595,1.0617077e-07]},{"name":"Cape_R_004","rotation":[-0.18728581,3.2379884e-08,0.09270686,0.977921],"translation":[-1.4528632e-07,1.8528169,-2.2351742e-08]},{"name":"Capemain","rotation":[-0.0021921932,6.2381347e-15,-5.2266036e-10,0.9999976],"translation":[8.376661e-09,0.78962106,-0.035134196]},{"name":"Pipe","rotation":[0.75752825,0.26018816,-0.38320637,0.46000645],"translation":[0.04006203,8.879335,0.31792644]},{"children":[63],"name":"Forearm_L_001","rotation":[0.7053429,-0.043034036,0.7075319,-0.006173241],"translation":[4.353762,3.7609072,0.631248]},{"children":[64],"name":"Hand_L","rotation":[0.017866932,0.00040221505,-0.00016016373,0.99984026],"translation":[-1.899898e-07,0.33095184,1.4156103e-07]},{"children":[65,68,80],"name":"Index_L","rotation":[-0.12134728,0.061649952,-0.006868123,0.99066997],"translation":[0.07723642,0.045984764,-0.1573765]},{"children":[66],"name":"Index_L_001","rotation":[0.0070237615,0.00014449989,0.046432037,0.9988968],"translation":[-7.4505806e-08,0.42326227,8.940697e-08]},{"children":[67],"name":"Index_L_002","rotation":[-0.004900774,1.6757456e-05,-0.0262135,0.99964434],"translation":[-1.1920929e-07,0.19409692,0.0]},{"name":"Index_L_003","rotation":[0.0051769,2.4759393e-05,-0.014122785,0.9998869],"translation":[2.8312206e-07,0.20610891,-5.9604645e-08]},{"children":[69,72],"name":"Middle_L","rotation":[0.09222923,-0.03946386,-0.034148794,0.99436927],"translation":[-0.019443884,-0.007276848,0.104314834]},{"children":[70],"name":"Middle_L_001","rotation":[-0.00562704,-0.005440807,0.04024527,0.99915916],"translation":[-1.1175871e-08,0.43274057,5.2154064e-08]},{"children":[71],"name":"Middle_L_002","rotation":[-0.0015940705,-0.0010260454,-0.019440375,0.99980927],"translation":[6.7055225e-08,0.23153079,1.1175871e-07]},{"name":"Middle_L_003","rotation":[0.0038266683,0.006723417,-0.014547049,0.9998643],"translation":[-1.1920929e-07,0.2061091,7.450581e-09]},{"children":[73,76],"name":"Ring_L","rotation":[0.07450172,-0.061653502,0.00201432,0.99531114],"translation":[-0.020910576,-0.017601512,0.12503383]},{"children":[74],"name":"Ring_L_001","rotation":[-0.036073137,-0.0026680445,0.041947585,0.9984648],"translation":[-1.1920929e-07,0.43083692,2.0861626e-07]},{"children":[75],"name":"Ring_L_002","rotation":[-0.004187851,-0.015618933,-0.019051036,0.99968773],"translation":[-1.7508864e-07,0.231531,-5.5879354e-09]},{"name":"Ring_L_003","rotation":[0.0014222198,-0.0066521685,-0.01497473,0.99986476],"translation":[1.3411045e-07,0.20610929,5.9604645e-08]},{"children":[77],"name":"Pinky_L","rotation":[0.042055957,0.0018975578,0.036778674,0.9984363],"translation":[-0.017042674,0.01968667,0.13065745]},{"children":[78],"name":"Pinky_L_001","rotation":[-0.044930667,-0.039039515,0.044126008,0.9972513],"translation":[1.6391277e-07,0.38175577,0.0]},{"children":[79],"name":"Pinky_L_002","rotation":[-0.0015791951,-0.008803981,-0.024069736,0.99967027],"translation":[3.1292439e-07,0.1919871,2.2351742e-08]},{"name":"Pinky_L_003","rotation":[0.00092216866,0.0069663413,-0.015013355,0.9998626],"translation":[5.2154064e-07,0.20610917,1.937151e-07]},{"children":[81],"name":"Thumb_L","rotation":[-0.25066423,0.65400434,-0.052692123,0.7118071],"translation":[-0.11602748,-0.075134486,-0.015444487]},{"children":[82],"name":"Thumb_L_001","rotation":[0.01734905,0.043754816,0.057187594,0.9972533],"translation":[-1.1920929e-07,0.29687414,2.4586916e-07]},{"name":"Thumb_L_002","rotation":[0.01415777,0.022511242,0.005085112,0.99963343],"translation":[2.9802322e-08,0.2061086,1.3411045e-07]},{"name":"Spine_013","rotation":[0.0027755706,-0.014281353,0.99989414,-3.9643157e-05],"translation":[0.1470585,-0.08917469,-3.9088914]},{"name":"Spine_014","rotation":[0.022510998,-0.007809771,0.9997161,-0.00017585646],"translation":[-0.24940118,0.11488079,-1.745903]},{"name":"Forearm_R_002","rotation":[-0.7131122,0.079800196,-0.08228044,0.6916162],"translation":[-2.0253294,3.0804417,-0.011203766]},{"name":"Forearm_L_002","rotation":[-0.7131122,-0.079800196,0.08228044,0.6916162],"translation":[2.0253294,3.0804417,-0.011203766]},{"name":"Arm_R_001","rotation":[-0.7043949,0.08139203,-0.081861146,0.70035845],"translation":[-1.4977386,4.9020834,-4.8955984]},{"name":"Arm_L_001","rotation":[-0.7043949,-0.08139203,0.081861146,0.70035845],"translation":[1.4977386,4.9020834,-4.8955984]},{"children":[90],"name":"Forearm_R_001","rotation":[0.92706466,-0.31626943,-0.1877099,0.072730795],"translation":[-2.6774266,2.3520198,0.21623993]},{"children":[91],"name":"Hand_R","rotation":[0.017866954,-0.0004022163,0.00016017744,0.99984026],"translation":[1.899898e-07,0.33095184,1.4156103e-07]},{"children":[92,95,107],"name":"Index_R","rotation":[-0.12134728,-0.061649952,0.006868123,0.99066997],"translation":[-0.07723642,0.045984764,-0.1573765]},{"children":[93],"name":"Index_R_001","rotation":[-0.07897423,-0.08860318,0.059997384,0.991117],"translation":[7.4505806e-08,0.42326227,8.940697e-08]},{"children":[94],"name":"Index_R_002","rotation":[-0.00440139,-0.0021551335,-0.4129321,0.9107486],"translation":[1.1920929e-07,0.19409692,0.0]},{"name":"Index_R_003","rotation":[0.005111378,0.0008215657,-0.14946748,0.9887531],"translation":[-2.8312206e-07,0.20610891,-5.9604645e-08]},{"children":[96,99],"name":"Middle_R","rotation":[0.09222923,0.03946386,0.034148794,0.99436927],"translation":[0.019443884,-0.007276848,0.104314834]},{"children":[97],"name":"Middle_R_001","rotation":[-0.0028900679,-0.026107699,-0.25983676,0.96529526],"translation":[1.1175871e-08,0.43274057,5.2154064e-08]},{"children":[98],"name":"Middle_R_002","rotation":[-0.001860328,0.00036489972,-0.3511291,0.93632513],"translation":[-6.7055225e-08,0.23153079,1.1175871e-07]},{"name":"Middle_R_003","rotation":[0.006038942,-0.0048351814,-0.35569707,0.9345693],"translation":[1.1920929e-07,0.2061091,7.450581e-09]},{"children":[100,103],"name":"Ring_R","rotation":[0.07450172,0.061653502,-0.00201432,0.99531114],"translation":[0.020910576,-0.017601512,0.12503383]},{"children":[101],"name":"Ring_R_001","rotation":[0.015862076,0.13792643,-0.35563162,0.9242569],"translation":[1.1920929e-07,0.43083692,2.0861626e-07]},{"children":[102],"name":"Ring_R_002","rotation":[-0.010867773,0.011974154,-0.44028398,0.89771295],"translation":[1.7508864e-07,0.231531,-5.5879354e-09]},{"name":"Ring_R_003","rotation":[-0.00066636445,0.0067697703,-0.28956008,0.9571357],"translation":[-1.3411045e-07,0.20610929,5.9604645e-08]},{"children":[104],"name":"Pinky_R","rotation":[0.042055957,-0.0018975578,-0.036778674,0.9984363],"translation":[0.017042674,0.01968667,0.13065745]},{"children":[105],"name":"Pinky_R_001","rotation":[-0.048115347,0.18534784,-0.39228666,0.8996901],"translation":[-1.6391277e-07,0.38175577,0.0]},{"children":[106],"name":"Pinky_R_002","rotation":[-0.0049343375,0.007460261,-0.37351006,0.927583],"translation":[-3.1292439e-07,0.1919871,2.2351742e-08]},{"name":"Pinky_R_003","rotation":[0.0036038193,-0.006032629,-0.3819032,0.9241756],"translation":[-5.2154064e-07,0.20610917,1.937151e-07]},{"children":[108],"name":"Thumb_R","rotation":[-0.1929624,-0.7822904,-0.027242193,0.5916461],"translation":[0.11602748,-0.075134486,-0.015444487]},{"children":[109],"name":"Thumb_R_001","rotation":[0.017349042,-0.0437548,-0.05718761,0.9972533],"translation":[1.1920929e-07,0.29687414,2.4586916e-07]},{"name":"Thumb_R_002","rotation":[0.014157774,-0.022511214,-0.0050851335,0.99963343],"translation":[-2.9802322e-08,0.2061086,1.3411045e-07]},{"mesh":1,"name":"Body_001","skin":1},{"mesh":2,"name":"Hands","skin":1}],"samplers":[{"magFilter":9729,"minFilter":9987,"wrapS":10497,"wrapT":10497}],"scene":0,"scenes":[{"name":"introFIRST","nodes":[0]}],"skins":[{"inverseBindMatrices":0,"joints":[2,3,4,5,6],"name":"Skin"},{"inverseBindMatrices":1,"joints":[9,10,11,12,13,14,15,16,17,18,19,20,21,22,23,24,25,26,27,28,29,30,31,32,33,34,35,36,37,38,39,40,41,42,43,44,45,46,47,48,49,50,51,52,53,54,55,56,57,58,59,60,61,62,63,64,65,66,67,68,69,70,71,72,73,74,75,76,77,78,79,80,81,82,83,84,85,86,87,88,89,90,91,92,93,94,95,96,97,98,99,100,101,102,103,104,105,106,107,108,109],"name":"Skin2"}],"textures":[{"sampler":0,"source":0},{"sampler":0,"source":1},{"sampler":0,"source":2},{"sampler":0,"source":3},{"sampler":0,"source":4},{"sampler":0,"source":5},{"sampler":0,"source":4},{"sampler":0,"source":6},{"sampler":0,"source":7}]}