{"accessors":[{"bufferView":0,"componentType":5126,"count":5,"max":[1.0,0.0,0.0,0.0,0.0,1.0,1.0,0.0,8.742278e-08,1.0,1.0,0.0,1.3545741e-15,1.4901161e-08,0.0,1.0],"min":[-1.0,-8.742279e-08,-8.742278e-08,0.0,-8.742276e-08,-1.0000001,0.0,0.0,-8.742278e-08,-2.1696258e-07,-1.0,0.0,-5.137057e-16,-1.4901161e-08,-3.8542614e-09,1.0],"normalized":false,"type":"MAT4"},{"bufferView":1,"componentType":5126,"count":101,"max":[3.6940176,3.5006998,3.6049688,0.0,3.4473133,3.6940138,3.5955024,0.0,3.0720568,3.590219,3.6940138,0.0,6.786702,7.2706385,8.918059,1.0],"min":[-3.6940172,-3.5007,-3.6049688,0.0,-3.4473126,-3.6935635,-3.6740057,0.0,-3.0720568,-3.6939528,-3.693972,0.0,-6.786703,-12.68487,-6.570665,1.0],"normalized":false,"type":"MAT4"},{"bufferView":2,"componentType":5126,"count":826,"max":[0.37513193,0.25475833,0.09141475],"min":[-0.37503514,-0.23692875,-0.09141475],"normalized":false,"type":"VEC3"},{"bufferView":3,"componentType":5126,"count":826,"max":[1.0,1.0,1.0,1.0],"min":[-1.0,-0.9999736,-1.0,-1.0],"normalized":false,"type":"VEC4"},{"bufferView":4,"componentType":5126,"count":826,"max":[1.0,1.0,1.0],"min":[-1.0,-1.0,-1.0],"normalized":false,"type":"VEC3"},{"bufferView":5,"componentType":5126,"count":826,"max":[0.9876395,0.98923016],"min":[0.015275653,0.008528888],"normalized":false,"type":"VEC2"},{"bufferView":6,"componentType":5121,"count":826,"max":[4,0,0,0],"min":[2,0,0,0],"normalized":false,"type":"VEC4"},{"bufferView":7,"componentType":5126,"count":826,"max":[1.0,0.0,0.0,0.0],"min":[1.0,0.0,0.0,0.0],"normalized":false,"type":"VEC4"},{"bufferView":8,"componentType":5123,"count":2460,"max":[825],"min":[0],"normalized":false,"type":"SCALAR"},{"bufferView":9,"componentType":5126,"count":196,"max":[0.6242265,0.8620658,-0.15553741],"min":[-0.6242265,0.7541256,-0.29009074],"normalized":false,"type":"VEC3"},{"bufferView":10,"componentType":5126,"count":196,"max":[0.9949074,0.9903316,0.33386156,1.0],"min":[-0.9949116,-0.9736018,-0.907622,-1.0],"normalized":false,"type":"VEC4"},{"bufferView":11,"componentType":5126,"count":196,"max":[0.9790165,0.99882454,0.96451896],"min":[-0.9790251,-0.9746846,-0.9714704],"normalized":false,"type":"VEC3"},{"bufferView":12,"componentType":5126,"count":196,"max":[0.9638469,0.9543976],"min":[0.02847156,0.06671828],"normalized":false,"type":"VEC2"},{"bufferView":13,"componentType":5121,"count":196,"max":[81,81,0,0],"min":[53,0,0,0],"normalized":false,"type":"VEC4"},{"bufferView":14,"componentType":5126,"count":196,"max":[1.0,0.48945588,0.0,0.0],"min":[0.5105442,0.0,0.0,0.0],"normalized":false,"type":"VEC4"},{"bufferView":15,"componentType":5121,"count":1056,"max":[195],"min":[0],"normalized":false,"type":"SCALAR"},{"bufferView":16,"componentType":5126,"count":1672,"max":[0.7227815,0.79148954,-0.052156284],"min":[-0.7227815,0.45795906,-0.3164942],"normalized":false,"type":"VEC3"},{"bufferView":17,"componentType":5126,"count":1672,"max":[0.99261343,0.9736607,0.99937046,1.0],"min":[-0.9926061,-0.992246,-0.9922614,-1.0],"normalized":false,"type":"VEC4"},{"bufferView":18,"componentType":5126,"count":1672,"max":[0.9993243,0.960573,0.9935076],"min":[-0.99932396,-0.9887126,-0.9940076],"normalized":false,"type":"VEC3"},{"bufferView":19,"componentType":5126,"count":1672,"max":[0.6301602,0.9793912],"min":[0.01893039,0.1511643],"normalized":false,"type":"VEC2"},{"bufferView":20,"componentType":5121,"count":1672,"max":[100,100,100,100],"min":[54,0,0,0],"normalized":false,"type":"VEC4"},{"bufferView":21,"componentType":5126,"count":1672,"max":[1.0,0.49993896,0.3063037,0.22703065],"min":[0.28428426,0.0,0.0,0.0],"normalized":false,"type":"VEC4"},{"bufferView":22,"componentType":5123,"count":8004,"max":[1671],"min":[0],"normalized":false,"type":"SCALAR"},{"bufferView":23,"componentType":5126,"count":1,"max":[0.0],"min":[0.0],"normalized":false,"type":"SCALAR"},{"bufferView":24,"componentType":5126,"count":1,"max":[0.8648431,0.06294313,-0.057161078,0.49478993],"min":[0.8648431,0.06294313,-0.057161078,0.49478993],"normalized":false,"type":"VEC4"},{"bufferView":25,"componentType":5126,"count":1,"max":[-0.0034248661,-0.055771846,0.001485506,0.99843657],"min":[-0.0034248661,-0.055771846,0.001485506,0.99843657],"normalized":false,"type":"VEC4"},{"bufferView":26,"componentType":5126,"count":1,"max":[-0.09726849,-0.06780694,0.20715827,0.97109556],"min":[-0.09726849,-0.06780694,0.20715827,0.97109556],"normalized":false,"type":"VEC4"},{"bufferView":27,"componentType":5126,"count":1,"max":[-0.16513678,0.056247216,-0.04849344,0.9834707],"min":[-0.16513678,0.056247216,-0.04849344,0.9834707],"normalized":false,"type":"VEC4"},{"bufferView":28,"componentType":5126,"count":1,"max":[-0.2586574,0.011316869,0.050756823,0.9645683],"min":[-0.2586574,0.011316869,0.050756823,0.9645683],"normalized":false,"type":"VEC4"},{"bufferView":29,"componentType":5126,"count":1,"max":[0.41230455,-0.023926202,-0.09832363,0.90540874],"min":[0.41230455,-0.023926202,-0.09832363,0.90540874],"normalized":false,"type":"VEC4"},{"bufferView":30,"componentType":5126,"count":1,"max":[-0.28041595,0.012080957,0.10690415,0.9538304],"min":[-0.28041595,0.012080957,0.10690415,0.9538304],"normalized":false,"type":"VEC4"},{"bufferView":31,"componentType":5126,"count":1,"max":[0.7118109,-0.6936375,0.008273012,0.110108465],"min":[0.7118109,-0.6936375,0.008273012,0.110108465],"normalized":false,"type":"VEC4"},{"bufferView":32,"componentType":5126,"count":1,"max":[-0.041719373,-1.8242941e-05,0.0045246664,0.99911916],"min":[-0.041719373,-1.8242941e-05,0.0045246664,0.99911916],"normalized":false,"type":"VEC4"},{"bufferView":33,"componentType":5126,"count":1,"max":[0.71181047,0.69363767,-0.008271514,0.11011007],"min":[0.71181047,0.69363767,-0.008271514,0.11011007],"normalized":false,"type":"VEC4"},{"bufferView":34,"componentType":5126,"count":1,"max":[-0.9999575,-2.1991509e-09,-1.6046875e-15,0.00922391],"min":[-0.9999575,-2.1991509e-09,-1.6046875e-15,0.00922391],"normalized":false,"type":"VEC4"},{"bufferView":35,"componentType":5126,"count":37,"max":[1.5],"min":[0.0],"normalized":false,"type":"SCALAR"},{"bufferView":36,"componentType":5126,"count":37,"max":[6.5128713,8.722493,4.09092],"min":[5.0775046,2.0022402,0.026776623],"normalized":false,"type":"VEC3"},{"bufferView":37,"componentType":5126,"count":38,"max":[1.5],"min":[0.0],"normalized":false,"type":"SCALAR"},{"bufferView":38,"componentType":5126,"count":38,"max":[0.9562564,-0.07025798,0.15621918,0.7599074],"min":[0.627175,-0.22859053,0.013292301,0.23044236],"normalized":false,"type":"VEC4"},{"bufferView":39,"componentType":5126,"count":1,"max":[0.0506086,-0.061976947,0.033672735,0.99622476],"min":[0.0506086,-0.061976947,0.033672735,0.99622476],"normalized":false,"type":"VEC4"},{"bufferView":40,"componentType":5126,"count":1,"max":[0.006587021,-0.0024424102,0.40966356,0.91220963],"min":[0.006587021,-0.0024424102,0.40966356,0.91220963],"normalized":false,"type":"VEC4"},{"bufferView":41,"componentType":5126,"count":1,"max":[-0.004552873,0.0018135435,0.3423579,0.9395569],"min":[-0.004552873,0.0018135435,0.3423579,0.9395569],"normalized":false,"type":"VEC4"},{"bufferView":42,"componentType":5126,"count":1,"max":[0.0048249955,-0.001876225,0.35369447,0.9353467],"min":[0.0048249955,-0.001876225,0.35369447,0.9353467],"normalized":false,"type":"VEC4"},{"bufferView":43,"componentType":5126,"count":1,"max":[-0.007489246,-0.0022753445,0.49154213,0.8708186],"min":[-0.007489246,-0.0022753445,0.49154213,0.8708186],"normalized":false,"type":"VEC4"},{"bufferView":44,"componentType":5126,"count":1,"max":[-0.0018593495,-0.00036967068,0.34871918,0.93722546],"min":[-0.0018593495,-0.00036967068,0.34871918,0.93722546],"normalized":false,"type":"VEC4"},{"bufferView":45,"componentType":5126,"count":1,"max":[0.006026471,0.004850693,0.35329157,0.9354813],"min":[0.006026471,0.004850693,0.35329157,0.9354813],"normalized":false,"type":"VEC4"},{"bufferView":46,"componentType":5126,"count":1,"max":[-0.0047130426,0.021494316,0.48312747,0.87527347],"min":[-0.0047130426,0.021494316,0.48312747,0.87527347],"normalized":false,"type":"VEC4"},{"bufferView":47,"componentType":5126,"count":1,"max":[-0.00962602,-0.012993429,0.34903678,0.9369695],"min":[-0.00962602,-0.012993429,0.34903678,0.9369695],"normalized":false,"type":"VEC4"},{"bufferView":48,"componentType":5126,"count":1,"max":[-0.0011174573,-0.00671009,0.3528938,0.93563867],"min":[-0.0011174573,-0.00671009,0.3528938,0.93563867],"normalized":false,"type":"VEC4"},{"bufferView":49,"componentType":5126,"count":1,"max":[-0.05612027,-0.019833475,0.40691468,0.9115249],"min":[-0.05612027,-0.019833475,0.40691468,0.9115249],"normalized":false,"type":"VEC4"},{"bufferView":50,"componentType":5126,"count":1,"max":[-0.004699027,-0.0076106945,0.34436175,0.93879455],"min":[-0.004699027,-0.0076106945,0.34436175,0.93879455],"normalized":false,"type":"VEC4"},{"bufferView":51,"componentType":5126,"count":1,"max":[0.0034136272,0.0061422423,0.35285717,0.9356508],"min":[0.0034136272,0.0061422423,0.35285717,0.9356508],"normalized":false,"type":"VEC4"},{"bufferView":52,"componentType":5126,"count":1,"max":[-0.423806,0.72232026,-0.020570308,0.5460942],"min":[-0.423806,0.72232026,-0.020570308,0.5460942],"normalized":false,"type":"VEC4"},{"bufferView":53,"componentType":5126,"count":1,"max":[0.018099109,0.04345009,0.07433125,0.9961222],"min":[0.018099109,0.04345009,0.07433125,0.9961222],"normalized":false,"type":"VEC4"},{"bufferView":54,"componentType":5126,"count":1,"max":[0.014542866,0.022264393,0.022277223,0.9993981],"min":[0.014542866,0.022264393,0.022277223,0.9993981],"normalized":false,"type":"VEC4"},{"bufferView":55,"componentType":5126,"count":1,"max":[-0.0027755771,0.014281352,-0.9998942,3.964315e-05],"min":[-0.0027755771,0.014281352,-0.9998942,3.964315e-05],"normalized":false,"type":"VEC4"},{"bufferView":56,"componentType":5126,"count":1,"max":[-0.022510998,0.00780978,-0.9997161,0.00017585626],"min":[-0.022510998,0.00780978,-0.9997161,0.00017585626],"normalized":false,"type":"VEC4"},{"bufferView":57,"componentType":5126,"count":39,"max":[1.5],"min":[0.0],"normalized":false,"type":"SCALAR"},{"bufferView":58,"componentType":5126,"count":39,"max":[3.3964393,8.096245,3.2550662],"min":[1.8957043,2.741716,-1.3396173],"normalized":false,"type":"VEC3"},{"bufferView":59,"componentType":5126,"count":38,"max":[1.5],"min":[0.0],"normalized":false,"type":"SCALAR"},{"bufferView":60,"componentType":5126,"count":38,"max":[0.972559,0.01278011,0.17954534,0.73753613],"min":[0.6595775,-0.108310804,0.06297228,0.20544623],"normalized":false,"type":"VEC4"},{"bufferView":61,"componentType":5126,"count":1,"max":[0.0065869736,0.0024423713,-0.40966356,0.91220963],"min":[0.0065869736,0.0024423713,-0.40966356,0.91220963],"normalized":false,"type":"VEC4"},{"bufferView":62,"componentType":5126,"count":1,"max":[-0.0045528905,-0.0018135429,-0.3423579,0.9395569],"min":[-0.0045528905,-0.0018135429,-0.3423579,0.9395569],"normalized":false,"type":"VEC4"},{"bufferView":63,"componentType":5126,"count":1,"max":[0.004824942,0.0018762292,-0.35369447,0.9353467],"min":[0.004824942,0.0018762292,-0.35369447,0.9353467],"normalized":false,"type":"VEC4"},{"bufferView":64,"componentType":5126,"count":1,"max":[-0.007489283,0.0022753666,-0.49154204,0.8708187],"min":[-0.007489283,0.0022753666,-0.49154204,0.8708187],"normalized":false,"type":"VEC4"},{"bufferView":65,"componentType":5126,"count":1,"max":[-0.0018593859,0.0003696809,-0.34871918,0.93722546],"min":[-0.0018593859,0.0003696809,-0.34871918,0.93722546],"normalized":false,"type":"VEC4"},{"bufferView":66,"componentType":5126,"count":1,"max":[0.006026443,-0.0048506986,-0.3532915,0.9354813],"min":[0.006026443,-0.0048506986,-0.3532915,0.9354813],"normalized":false,"type":"VEC4"},{"bufferView":67,"componentType":5126,"count":1,"max":[-0.0047130594,-0.021494308,-0.48312736,0.8752735],"min":[-0.0047130594,-0.021494308,-0.48312736,0.8752735],"normalized":false,"type":"VEC4"},{"bufferView":68,"componentType":5126,"count":1,"max":[-0.009625964,0.012993443,-0.34903678,0.9369695],"min":[-0.009625964,0.012993443,-0.34903678,0.9369695],"normalized":false,"type":"VEC4"},{"bufferView":69,"componentType":5126,"count":1,"max":[-0.0011174032,0.00671013,-0.35289383,0.93563867],"min":[-0.0011174032,0.00671013,-0.35289383,0.93563867],"normalized":false,"type":"VEC4"},{"bufferView":70,"componentType":5126,"count":1,"max":[-0.05612021,0.019833539,-0.40691468,0.9115249],"min":[-0.05612021,0.019833539,-0.40691468,0.9115249],"normalized":false,"type":"VEC4"},{"bufferView":71,"componentType":5126,"count":1,"max":[-0.0046989606,0.0076107522,-0.34436175,0.93879455],"min":[-0.0046989606,0.0076107522,-0.34436175,0.93879455],"normalized":false,"type":"VEC4"},{"bufferView":72,"componentType":5126,"count":1,"max":[0.0034137147,-0.006142216,-0.3528572,0.9356508],"min":[0.0034137147,-0.006142216,-0.3528572,0.9356508],"normalized":false,"type":"VEC4"},{"bufferView":73,"componentType":5126,"count":1,"max":[-0.41945115,-0.78786016,0.080231346,0.4437342],"min":[-0.41945115,-0.78786016,0.080231346,0.4437342],"normalized":false,"type":"VEC4"},{"bufferView":74,"componentType":5126,"count":1,"max":[0.01809907,-0.04345009,-0.07433126,0.9961222],"min":[0.01809907,-0.04345009,-0.07433126,0.9961222],"normalized":false,"type":"VEC4"},{"bufferView":75,"componentType":5126,"count":1,"max":[0.014542869,-0.02226438,-0.02227723,0.9993981],"min":[0.014542869,-0.02226438,-0.02227723,0.9993981],"normalized":false,"type":"VEC4"},{"bufferView":76,"componentType":5126,"count":1,"max":[5.187356e-17,0.0,1.4901161e-08],"min":[5.187356e-17,0.0,1.4901161e-08],"normalized":false,"type":"VEC3"},{"bufferView":77,"componentType":5126,"count":1,"max":[3.090862e-08,0.70710677,0.70710677,3.090862e-08],"min":[3.090862e-08,0.70710677,0.70710677,3.090862e-08],"normalized":false,"type":"VEC4"},{"bufferView":78,"componentType":5126,"count":1,"max":[0.0,0.0,0.0],"min":[0.0,0.0,0.0],"normalized":false,"type":"VEC3"},{"bufferView":79,"componentType":5126,"count":1,"max":[0.0,4.371139e-08,0.0,1.0],"min":[0.0,4.371139e-08,0.0,1.0],"normalized":false,"type":"VEC4"},{"bufferView":80,"componentType":5126,"count":1,"max":[-8.432161e-09,-0.70710665,0.7071069,-5.338507e-08],"min":[-8.432161e-09,-0.70710665,0.7071069,-5.338507e-08],"normalized":false,"type":"VEC4"},{"bufferView":81,"componentType":5126,"count":39,"max":[-0.49488127,0.7508144,2.1996043],"min":[-0.8920446,-0.5240576,0.6616021],"normalized":false,"type":"VEC3"},{"bufferView":82,"componentType":5126,"count":38,"max":[0.1293224,0.83165514,0.53209835,0.11658661],"min":[-0.19736898,-0.98876303,-0.5572671,0.0014093397],"normalized":false,"type":"VEC4"},{"bufferView":83,"componentType":5126,"count":1,"max":[0.4400332,0.12935145,-0.059174128],"min":[0.4400332,0.12935145,-0.059174128],"normalized":false,"type":"VEC3"},{"bufferView":84,"componentType":5126,"count":1,"max":[-0.65574574,-0.099663794,-0.06026381,0.7459443],"min":[-0.65574574,-0.099663794,-0.06026381,0.7459443],"normalized":false,"type":"VEC4"},{"bufferView":85,"componentType":5126,"count":1,"max":[5.8469687,-0.74440706,-1.3077556],"min":[5.8469687,-0.74440706,-1.3077556],"normalized":false,"type":"VEC3"},{"bufferView":86,"componentType":5126,"count":1,"max":[-0.114007235,-0.883641,-0.018405495,0.45369834],"min":[-0.114007235,-0.883641,-0.018405495,0.45369834],"normalized":false,"type":"VEC4"},{"bufferView":87,"componentType":5126,"count":1,"max":[0.88732284,0.12086062,-0.11050723,0.4310905],"min":[0.88732284,0.12086062,-0.11050723,0.4310905],"normalized":false,"type":"VEC4"},{"bufferView":88,"componentType":5126,"count":1,"max":[-0.42063364,-0.061144978,0.14703032,0.8931465],"min":[-0.42063364,-0.061144978,0.14703032,0.8931465],"normalized":false,"type":"VEC4"},{"bufferView":89,"componentType":5126,"count":1,"max":[0.24838607,-0.03531733,0.12877102,0.95941395],"min":[0.24838607,-0.03531733,0.12877102,0.95941395],"normalized":false,"type":"VEC4"},{"bufferView":90,"componentType":5126,"count":1,"max":[-0.17528301,0.027967427,-0.11627247,0.9772279],"min":[-0.17528301,0.027967427,-0.11627247,0.9772279],"normalized":false,"type":"VEC4"},{"bufferView":91,"componentType":5126,"count":1,"max":[-0.12422629,0.010908164,0.054303437,0.99070686],"min":[-0.12422629,0.010908164,0.054303437,0.99070686],"normalized":false,"type":"VEC4"},{"bufferView":92,"componentType":5126,"count":1,"max":[0.47228274,-0.024239918,-0.09527684,0.87594736],"min":[0.47228274,-0.024239918,-0.09527684,0.87594736],"normalized":false,"type":"VEC4"},{"bufferView":93,"componentType":5126,"count":1,"max":[-0.24628012,0.015996823,0.10496086,0.9633657],"min":[-0.24628012,0.015996823,0.10496086,0.9633657],"normalized":false,"type":"VEC4"},{"bufferView":94,"componentType":5126,"count":1,"max":[0.7112816,-0.696494,-0.0075837784,0.09443058],"min":[0.7112816,-0.696494,-0.0075837784,0.09443058],"normalized":false,"type":"VEC4"},{"bufferView":95,"componentType":5126,"count":1,"max":[-0.04170492,-1.8241102e-05,0.0045230924,0.99911976],"min":[-0.04170492,-1.8241102e-05,0.0045230924,0.99911976],"normalized":false,"type":"VEC4"},{"bufferView":96,"componentType":5126,"count":1,"max":[0.7112816,0.696494,0.0075837993,0.09443061],"min":[0.7112816,0.696494,0.0075837993,0.09443061],"normalized":false,"type":"VEC4"},{"bufferView":97,"componentType":5126,"count":1,"max":[0.99995744,2.1991522e-09,1.5040693e-14,-0.009223917],"min":[0.99995744,2.1991522e-09,1.5040693e-14,-0.009223917],"normalized":false,"type":"VEC4"},{"bufferView":98,"componentType":5126,"count":1,"max":[2.0253294,3.0804417,-0.011203766],"min":[2.0253294,3.0804417,-0.011203766],"normalized":false,"type":"VEC3"},{"bufferView":99,"componentType":5126,"count":1,"max":[0.9858319,0.16541502,0.023985239,0.014072405],"min":[0.9858319,0.16541502,0.023985239,0.014072405],"normalized":false,"type":"VEC4"},{"bufferView":100,"componentType":5126,"count":1,"max":[0.0178669,0.00040221584,-0.00016017721,0.99984026],"min":[0.0178669,0.00040221584,-0.00016017721,0.99984026],"normalized":false,"type":"VEC4"},{"bufferView":101,"componentType":5126,"count":1,"max":[0.0070237736,0.00014450238,0.046432067,0.9988968],"min":[0.0070237736,0.00014450238,0.046432067,0.9988968],"normalized":false,"type":"VEC4"},{"bufferView":102,"componentType":5126,"count":1,"max":[-0.0049007535,1.6766078e-05,-0.0262134,0.99964434],"min":[-0.0049007535,1.6766078e-05,-0.0262134,0.99964434],"normalized":false,"type":"VEC4"},{"bufferView":103,"componentType":5126,"count":1,"max":[0.0051768785,2.47648e-05,-0.0141227795,0.9998869],"min":[0.0051768785,2.47648e-05,-0.0141227795,0.9998869],"normalized":false,"type":"VEC4"},{"bufferView":104,"componentType":5126,"count":1,"max":[-0.005627046,-0.0054408032,0.040245358,0.99915916],"min":[-0.005627046,-0.0054408032,0.040245358,0.99915916],"normalized":false,"type":"VEC4"},{"bufferView":105,"componentType":5126,"count":1,"max":[-0.0015940779,-0.0010260425,-0.019440435,0.9998092],"min":[-0.0015940779,-0.0010260425,-0.019440435,0.9998092],"normalized":false,"type":"VEC4"},{"bufferView":106,"componentType":5126,"count":1,"max":[0.003826671,0.0067234174,-0.014547075,0.9998643],"min":[0.003826671,0.0067234174,-0.014547075,0.9998643],"normalized":false,"type":"VEC4"},{"bufferView":107,"componentType":5126,"count":1,"max":[-0.036073126,-0.002668044,0.041947607,0.9984648],"min":[-0.036073126,-0.002668044,0.041947607,0.9984648],"normalized":false,"type":"VEC4"},{"bufferView":108,"componentType":5126,"count":1,"max":[-0.004187852,-0.015618933,-0.019051047,0.99968773],"min":[-0.004187852,-0.015618933,-0.019051047,0.99968773],"normalized":false,"type":"VEC4"},{"bufferView":109,"componentType":5126,"count":1,"max":[0.0014222192,-0.0066521703,-0.014974755,0.99986476],"min":[0.0014222192,-0.0066521703,-0.014974755,0.99986476],"normalized":false,"type":"VEC4"},{"bufferView":110,"componentType":5126,"count":1,"max":[-0.044930656,-0.03903957,0.044126097,0.9972513],"min":[-0.044930656,-0.03903957,0.044126097,0.9972513],"normalized":false,"type":"VEC4"},{"bufferView":111,"componentType":5126,"count":1,"max":[-0.0015792033,-0.008803948,-0.024069658,0.99967027],"min":[-0.0015792033,-0.008803948,-0.024069658,0.99967027],"normalized":false,"type":"VEC4"},{"bufferView":112,"componentType":5126,"count":1,"max":[0.00092217064,0.0069663133,-0.015013315,0.9998626],"min":[0.00092217064,0.0069663133,-0.015013315,0.9998626],"normalized":false,"type":"VEC4"},{"bufferView":113,"componentType":5126,"count":1,"max":[-0.25066426,0.65400434,-0.052692026,0.7118071],"min":[-0.25066426,0.65400434,-0.052692026,0.7118071],"normalized":false,"type":"VEC4"},{"bufferView":114,"componentType":5126,"count":1,"max":[0.017349074,0.043754935,0.05718779,0.9972533],"min":[0.017349074,0.043754935,0.05718779,0.9972533],"normalized":false,"type":"VEC4"},{"bufferView":115,"componentType":5126,"count":1,"max":[0.014157789,0.022511225,0.0050851326,0.99963343],"min":[0.014157789,0.022511225,0.0050851326,0.99963343],"normalized":false,"type":"VEC4"},{"bufferView":116,"componentType":5126,"count":1,"max":[0.0027755771,-0.014281352,0.99989414,-3.964315e-05],"min":[0.0027755771,-0.014281352,0.99989414,-3.964315e-05],"normalized":false,"type":"VEC4"},{"bufferView":117,"componentType":5126,"count":1,"max":[0.022510998,-0.007809779,0.9997161,-0.00017585626],"min":[0.022510998,-0.007809779,0.9997161,-0.00017585626],"normalized":false,"type":"VEC4"},{"bufferView":118,"componentType":5126,"count":1,"max":[-2.0253294,3.0804417,-0.011203766],"min":[-2.0253294,3.0804417,-0.011203766],"normalized":false,"type":"VEC3"},{"bufferView":119,"componentType":5126,"count":1,"max":[0.9858319,-0.16541502,-0.023985239,0.014072405],"min":[0.9858319,-0.16541502,-0.023985239,0.014072405],"normalized":false,"type":"VEC4"},{"bufferView":120,"componentType":5126,"count":1,"max":[0.0070237736,-0.00014450238,-0.046432067,0.9988968],"min":[0.0070237736,-0.00014450238,-0.046432067,0.9988968],"normalized":false,"type":"VEC4"},{"bufferView":121,"componentType":5126,"count":1,"max":[-0.0049007535,-1.6766078e-05,0.0262134,0.99964434],"min":[-0.0049007535,-1.6766078e-05,0.0262134,0.99964434],"normalized":false,"type":"VEC4"},{"bufferView":122,"componentType":5126,"count":1,"max":[0.0051768785,-2.47648e-05,0.0141227795,0.9998869],"min":[0.0051768785,-2.47648e-05,0.0141227795,0.9998869],"normalized":false,"type":"VEC4"},{"bufferView":123,"componentType":5126,"count":1,"max":[-0.005627046,0.0054408032,-0.040245358,0.99915916],"min":[-0.005627046,0.0054408032,-0.040245358,0.99915916],"normalized":false,"type":"VEC4"},{"bufferView":124,"componentType":5126,"count":1,"max":[-0.0015940779,0.0010260425,0.019440435,0.9998092],"min":[-0.0015940779,0.0010260425,0.019440435,0.9998092],"normalized":false,"type":"VEC4"},{"bufferView":125,"componentType":5126,"count":1,"max":[0.003826671,-0.0067234174,0.014547075,0.9998643],"min":[0.003826671,-0.0067234174,0.014547075,0.9998643],"normalized":false,"type":"VEC4"},{"bufferView":126,"componentType":5126,"count":1,"max":[-0.036073126,0.002668044,-0.041947607,0.9984648],"min":[-0.036073126,0.002668044,-0.041947607,0.9984648],"normalized":false,"type":"VEC4"},{"bufferView":127,"componentType":5126,"count":1,"max":[-0.004187852,0.015618933,0.019051047,0.99968773],"min":[-0.004187852,0.015618933,0.019051047,0.99968773],"normalized":false,"type":"VEC4"},{"bufferView":128,"componentType":5126,"count":1,"max":[0.0014222192,0.0066521703,0.014974755,0.99986476],"min":[0.0014222192,0.0066521703,0.014974755,0.99986476],"normalized":false,"type":"VEC4"},{"bufferView":129,"componentType":5126,"count":1,"max":[-0.044930656,0.03903957,-0.044126097,0.9972513],"min":[-0.044930656,0.03903957,-0.044126097,0.9972513],"normalized":false,"type":"VEC4"},{"bufferView":130,"componentType":5126,"count":1,"max":[-0.0015792033,0.008803948,0.024069658,0.99967027],"min":[-0.0015792033,0.008803948,0.024069658,0.99967027],"normalized":false,"type":"VEC4"},{"bufferView":131,"componentType":5126,"count":1,"max":[0.00092217064,-0.0069663133,0.015013315,0.9998626],"min":[0.00092217064,-0.0069663133,0.015013315,0.9998626],"normalized":false,"type":"VEC4"},{"bufferView":132,"componentType":5126,"count":1,"max":[-0.25066426,-0.65400434,0.052692026,0.7118071],"min":[-0.25066426,-0.65400434,0.052692026,0.7118071],"normalized":false,"type":"VEC4"},{"bufferView":133,"componentType":5126,"count":1,"max":[0.017349074,-0.043754935,-0.05718779,0.9972533],"min":[0.017349074,-0.043754935,-0.05718779,0.9972533],"normalized":false,"type":"VEC4"},{"bufferView":134,"componentType":5126,"count":1,"max":[0.014157789,-0.022511225,-0.0050851326,0.99963343],"min":[0.014157789,-0.022511225,-0.0050851326,0.99963343],"normalized":false,"type":"VEC4"}],"animations":[{"channels":[{"sampler":0,"target":{"node":12,"path":"rotation"}},{"sampler":1,"target":{"node":13,"path":"rotation"}},{"sampler":2,"target":{"node":14,"path":"rotation"}},{"sampler":3,"target":{"node":15,"path":"rotation"}},{"sampler":4,"target":{"node":16,"path":"rotation"}},{"sampler":5,"target":{"node":17,"path":"rotation"}},{"sampler":6,"target":{"node":18,"path":"rotation"}},{"sampler":7,"target":{"node":41,"path":"rotation"}},{"sampler":8,"target":{"node":42,"path":"rotation"}},{"sampler":9,"target":{"node":46,"path":"rotation"}},{"sampler":10,"target":{"node":50,"path":"rotation"}},{"sampler":11,"target":{"node":62,"path":"translation"}},{"sampler":12,"target":{"node":62,"path":"rotation"}},{"sampler":13,"target":{"node":63,"path":"rotation"}},{"sampler":14,"target":{"node":65,"path":"rotation"}},{"sampler":15,"target":{"node":66,"path":"rotation"}},{"sampler":16,"target":{"node":67,"path":"rotation"}},{"sampler":17,"target":{"node":69,"path":"rotation"}},{"sampler":18,"target":{"node":70,"path":"rotation"}},{"sampler":19,"target":{"node":71,"path":"rotation"}},{"sampler":20,"target":{"node":73,"path":"rotation"}},{"sampler":21,"target":{"node":74,"path":"rotation"}},{"sampler":22,"target":{"node":75,"path":"rotation"}},{"sampler":23,"target":{"node":77,"path":"rotation"}},{"sampler":24,"target":{"node":78,"path":"rotation"}},{"sampler":25,"target":{"node":79,"path":"rotation"}},{"sampler":26,"target":{"node":80,"path":"rotation"}},{"sampler":27,"target":{"node":81,"path":"rotation"}},{"sampler":28,"target":{"node":82,"path":"rotation"}},{"sampler":29,"target":{"node":83,"path":"rotation"}},{"sampler":30,"target":{"node":84,"path":"rotation"}},{"sampler":31,"target":{"node":89,"path":"translation"}},{"sampler":32,"target":{"node":89,"path":"rotation"}},{"sampler":33,"target":{"node":92,"path":"rotation"}},{"sampler":34,"target":{"node":93,"path":"rotation"}},{"sampler":35,"target":{"node":94,"path":"rotation"}},{"sampler":36,"target":{"node":96,"path":"rotation"}},{"sampler":37,"target":{"node":97,"path":"rotation"}},{"sampler":38,"target":{"node":98,"path":"rotation"}},{"sampler":39,"target":{"node":100,"path":"rotation"}},{"sampler":40,"target":{"node":101,"path":"rotation"}},{"sampler":41,"target":{"node":102,"path":"rotation"}},{"sampler":42,"target":{"node":104,"path":"rotation"}},{"sampler":43,"target":{"node":105,"path":"rotation"}},{"sampler":44,"target":{"node":106,"path":"rotation"}},{"sampler":45,"target":{"node":107,"path":"rotation"}},{"sampler":46,"target":{"node":108,"path":"rotation"}},{"sampler":47,"target":{"node":109,"path":"rotation"}},{"sampler":48,"target":{"node":3,"path":"translation"}},{"sampler":49,"target":{"node":3,"path":"rotation"}},{"sampler":50,"target":{"node":4,"path":"translation"}},{"sampler":51,"target":{"node":4,"path":"rotation"}},{"sampler":52,"target":{"node":5,"path":"translation"}},{"sampler":53,"target":{"node":5,"path":"rotation"}}],"name":"CardboardSign0_outro_36f","samplers":[{"input":23,"interpolation":"STEP","output":24},{"input":23,"interpolation":"STEP","output":25},{"input":23,"interpolation":"STEP","output":26},{"input":23,"interpolation":"STEP","output":27},{"input":23,"interpolation":"STEP","output":28},{"input":23,"interpolation":"STEP","output":29},{"input":23,"interpolation":"STEP","output":30},{"input":23,"interpolation":"STEP","output":31},{"input":23,"interpolation":"STEP","output":32},{"input":23,"interpolation":"STEP","output":33},{"input":23,"interpolation":"STEP","output":34},{"input":35,"interpolation":"LINEAR","output":36},{"input":37,"interpolation":"LINEAR","output":38},{"input":23,"interpolation":"LINEAR","output":39},{"input":23,"interpolation":"LINEAR","output":40},{"input":23,"interpolation":"LINEAR","output":41},{"input":23,"interpolation":"LINEAR","output":42},{"input":23,"interpolation":"LINEAR","output":43},{"input":23,"interpolation":"LINEAR","output":44},{"input":23,"interpolation":"LINEAR","output":45},{"input":23,"interpolation":"LINEAR","output":46},{"input":23,"interpolation":"LINEAR","output":47},{"input":23,"interpolation":"LINEAR","output":48},{"input":23,"interpolation":"LINEAR","output":49},{"input":23,"interpolation":"LINEAR","output":50},{"input":23,"interpolation":"LINEAR","output":51},{"input":23,"interpolation":"LINEAR","output":52},{"input":23,"interpolation":"LINEAR","output":53},{"input":23,"interpolation":"LINEAR","output":54},{"input":23,"interpolation":"STEP","output":55},{"input":23,"interpolation":"STEP","output":56},{"input":57,"interpolation":"LINEAR","output":58},{"input":59,"interpolation":"LINEAR","output":60},{"input":23,"interpolation":"LINEAR","output":61},{"input":23,"interpolation":"LINEAR","output":62},{"input":23,"interpolation":"LINEAR","output":63},{"input":23,"interpolation":"LINEAR","output":64},{"input":23,"interpolation":"LINEAR","output":65},{"input":23,"interpolation":"LINEAR","output":66},{"input":23,"interpolation":"LINEAR","output":67},{"input":23,"interpolation":"LINEAR","output":68},{"input":23,"interpolation":"LINEAR","output":69},{"input":23,"interpolation":"LINEAR","output":70},{"input":23,"interpolation":"LINEAR","output":71},{"input":23,"interpolation":"LINEAR","output":72},{"input":23,"interpolation":"LINEAR","output":73},{"input":23,"interpolation":"LINEAR","output":74},{"input":23,"interpolation":"LINEAR","output":75},{"input":23,"interpolation":"LINEAR","output":76},{"input":23,"interpolation":"LINEAR","output":77},{"input":23,"interpolation":"LINEAR","output":78},{"input":23,"interpolation":"LINEAR","output":79},{"input":23,"interpolation":"LINEAR","output":76},{"input":23,"interpolation":"LINEAR","output":80}]},{"channels":[{"sampler":0,"target":{"node":3,"path":"translation"}},{"sampler":1,"target":{"node":3,"path":"rotation"}},{"sampler":2,"target":{"node":4,"path":"translation"}},{"sampler":3,"target":{"node":4,"path":"rotation"}},{"sampler":4,"target":{"node":5,"path":"translation"}},{"sampler":5,"target":{"node":5,"path":"rotation"}},{"sampler":6,"target":{"node":12,"path":"rotation"}},{"sampler":7,"target":{"node":13,"path":"rotation"}},{"sampler":8,"target":{"node":14,"path":"rotation"}},{"sampler":9,"target":{"node":15,"path":"rotation"}},{"sampler":10,"target":{"node":16,"path":"rotation"}},{"sampler":11,"target":{"node":17,"path":"rotation"}},{"sampler":12,"target":{"node":18,"path":"rotation"}},{"sampler":13,"target":{"node":41,"path":"rotation"}},{"sampler":14,"target":{"node":42,"path":"rotation"}},{"sampler":15,"target":{"node":46,"path":"rotation"}},{"sampler":16,"target":{"node":50,"path":"rotation"}},{"sampler":17,"target":{"node":62,"path":"translation"}},{"sampler":18,"target":{"node":62,"path":"rotation"}},{"sampler":19,"target":{"node":63,"path":"rotation"}},{"sampler":20,"target":{"node":65,"path":"rotation"}},{"sampler":21,"target":{"node":66,"path":"rotation"}},{"sampler":22,"target":{"node":67,"path":"rotation"}},{"sampler":23,"target":{"node":69,"path":"rotation"}},{"sampler":24,"target":{"node":70,"path":"rotation"}},{"sampler":25,"target":{"node":71,"path":"rotation"}},{"sampler":26,"target":{"node":73,"path":"rotation"}},{"sampler":27,"target":{"node":74,"path":"rotation"}},{"sampler":28,"target":{"node":75,"path":"rotation"}},{"sampler":29,"target":{"node":77,"path":"rotation"}},{"sampler":30,"target":{"node":78,"path":"rotation"}},{"sampler":31,"target":{"node":79,"path":"rotation"}},{"sampler":32,"target":{"node":80,"path":"rotation"}},{"sampler":33,"target":{"node":81,"path":"rotation"}},{"sampler":34,"target":{"node":82,"path":"rotation"}},{"sampler":35,"target":{"node":83,"path":"rotation"}},{"sampler":36,"target":{"node":84,"path":"rotation"}},{"sampler":37,"target":{"node":89,"path":"translation"}},{"sampler":38,"target":{"node":89,"path":"rotation"}},{"sampler":39,"target":{"node":92,"path":"rotation"}},{"sampler":40,"target":{"node":93,"path":"rotation"}},{"sampler":41,"target":{"node":94,"path":"rotation"}},{"sampler":42,"target":{"node":96,"path":"rotation"}},{"sampler":43,"target":{"node":97,"path":"rotation"}},{"sampler":44,"target":{"node":98,"path":"rotation"}},{"sampler":45,"target":{"node":100,"path":"rotation"}},{"sampler":46,"target":{"node":101,"path":"rotation"}},{"sampler":47,"target":{"node":102,"path":"rotation"}},{"sampler":48,"target":{"node":104,"path":"rotation"}},{"sampler":49,"target":{"node":105,"path":"rotation"}},{"sampler":50,"target":{"node":106,"path":"rotation"}},{"sampler":51,"target":{"node":107,"path":"rotation"}},{"sampler":52,"target":{"node":108,"path":"rotation"}},{"sampler":53,"target":{"node":109,"path":"rotation"}}],"name":"CardboardSign1_outro_36f","samplers":[{"input":57,"interpolation":"LINEAR","output":81},{"input":59,"interpolation":"LINEAR","output":82},{"input":23,"interpolation":"LINEAR","output":83},{"input":23,"interpolation":"STEP","output":84},{"input":23,"interpolation":"STEP","output":85},{"input":23,"interpolation":"STEP","output":86},{"input":23,"interpolation":"LINEAR","output":87},{"input":23,"interpolation":"LINEAR","output":88},{"input":23,"interpolation":"LINEAR","output":89},{"input":23,"interpolation":"LINEAR","output":90},{"input":23,"interpolation":"LINEAR","output":91},{"input":23,"interpolation":"LINEAR","output":92},{"input":23,"interpolation":"LINEAR","output":93},{"input":23,"interpolation":"LINEAR","output":94},{"input":23,"interpolation":"LINEAR","output":95},{"input":23,"interpolation":"LINEAR","output":96},{"input":23,"interpolation":"LINEAR","output":97},{"input":23,"interpolation":"LINEAR","output":98},{"input":23,"interpolation":"LINEAR","output":99},{"input":23,"interpolation":"LINEAR","output":100},{"input":23,"interpolation":"LINEAR","output":101},{"input":23,"interpolation":"LINEAR","output":102},{"input":23,"interpolation":"LINEAR","output":103},{"input":23,"interpolation":"LINEAR","output":104},{"input":23,"interpolation":"LINEAR","output":105},{"input":23,"interpolation":"LINEAR","output":106},{"input":23,"interpolation":"LINEAR","output":107},{"input":23,"interpolation":"LINEAR","output":108},{"input":23,"interpolation":"LINEAR","output":109},{"input":23,"interpolation":"LINEAR","output":110},{"input":23,"interpolation":"LINEAR","output":111},{"input":23,"interpolation":"LINEAR","output":112},{"input":23,"interpolation":"LINEAR","output":113},{"input":23,"interpolation":"LINEAR","output":114},{"input":23,"interpolation":"LINEAR","output":115},{"input":23,"interpolation":"LINEAR","output":116},{"input":23,"interpolation":"LINEAR","output":117},{"input":23,"interpolation":"LINEAR","output":118},{"input":23,"interpolation":"LINEAR","output":119},{"input":23,"interpolation":"LINEAR","output":120},{"input":23,"interpolation":"LINEAR","output":121},{"input":23,"interpolation":"LINEAR","output":122},{"input":23,"interpolation":"LINEAR","output":123},{"input":23,"interpolation":"LINEAR","output":124},{"input":23,"interpolation":"LINEAR","output":125},{"input":23,"interpolation":"LINEAR","output":126},{"input":23,"interpolation":"LINEAR","output":127},{"input":23,"interpolation":"LINEAR","output":128},{"input":23,"interpolation":"LINEAR","output":129},{"input":23,"interpolation":"LINEAR","output":130},{"input":23,"interpolation":"LINEAR","output":131},{"input":23,"interpolation":"LINEAR","output":132},{"input":23,"interpolation":"LINEAR","output":133},{"input":23,"interpolation":"LINEAR","output":134}]}],"asset":{"copyright":"The Creators of 'Friday Night Funkin': Lullaby'","generator":"GDRE Tools vv2.6.3","version":"2.0"},"bufferViews":[{"buffer":0,"byteLength":320},{"buffer":0,"byteLength":6464,"byteOffset":320},{"buffer":0,"byteLength":9912,"byteOffset":6784,"byteStride":12,"target":34962},{"buffer":0,"byteLength":13216,"byteOffset":16696,"byteStride":16,"target":34962},{"buffer":0,"byteLength":9912,"byteOffset":29912,"byteStride":12,"target":34962},{"buffer":0,"byteLength":6608,"byteOffset":39824,"byteStride":8,"target":34962},{"buffer":0,"byteLength":3304,"byteOffset":46432,"byteStride":4,"target":34962},{"buffer":0,"byteLength":13216,"byteOffset":49736,"byteStride":16,"target":34962},{"buffer":0,"byteLength":4920,"byteOffset":62952,"target":34963},{"buffer":0,"byteLength":2352,"byteOffset":67872,"byteStride":12,"target":34962},{"buffer":0,"byteLength":3136,"byteOffset":70224,"byteStride":16,"target":34962},{"buffer":0,"byteLength":2352,"byteOffset":73360,"byteStride":12,"target":34962},{"buffer":0,"byteLength":1568,"byteOffset":75712,"byteStride":8,"target":34962},{"buffer":0,"byteLength":784,"byteOffset":77280,"byteStride":4,"target":34962},{"buffer":0,"byteLength":3136,"byteOffset":78064,"byteStride":16,"target":34962},{"buffer":0,"byteLength":1056,"byteOffset":81200,"target":34963},{"buffer":0,"byteLength":20064,"byteOffset":82256,"byteStride":12,"target":34962},{"buffer":0,"byteLength":26752,"byteOffset":102320,"byteStride":16,"target":34962},{"buffer":0,"byteLength":20064,"byteOffset":129072,"byteStride":12,"target":34962},{"buffer":0,"byteLength":13376,"byteOffset":149136,"byteStride":8,"target":34962},{"buffer":0,"byteLength":6688,"byteOffset":162512,"byteStride":4,"target":34962},{"buffer":0,"byteLength":26752,"byteOffset":169200,"byteStride":16,"target":34962},{"buffer":0,"byteLength":16008,"byteOffset":195952,"target":34963},{"buffer":0,"byteLength":4,"byteOffset":211960},{"buffer":0,"byteLength":16,"byteOffset":211964},{"buffer":0,"byteLength":16,"byteOffset":211980},{"buffer":0,"byteLength":16,"byteOffset":211996},{"buffer":0,"byteLength":16,"byteOffset":212012},{"buffer":0,"byteLength":16,"byteOffset":212028},{"buffer":0,"byteLength":16,"byteOffset":212044},{"buffer":0,"byteLength":16,"byteOffset":212060},{"buffer":0,"byteLength":16,"byteOffset":212076},{"buffer":0,"byteLength":16,"byteOffset":212092},{"buffer":0,"byteLength":16,"byteOffset":212108},{"buffer":0,"byteLength":16,"byteOffset":212124},{"buffer":0,"byteLength":148,"byteOffset":212140},{"buffer":0,"byteLength":444,"byteOffset":212288},{"buffer":0,"byteLength":152,"byteOffset":212732},{"buffer":0,"byteLength":608,"byteOffset":212884},{"buffer":0,"byteLength":16,"byteOffset":213492},{"buffer":0,"byteLength":16,"byteOffset":213508},{"buffer":0,"byteLength":16,"byteOffset":213524},{"buffer":0,"byteLength":16,"byteOffset":213540},{"buffer":0,"byteLength":16,"byteOffset":213556},{"buffer":0,"byteLength":16,"byteOffset":213572},{"buffer":0,"byteLength":16,"byteOffset":213588},{"buffer":0,"byteLength":16,"byteOffset":213604},{"buffer":0,"byteLength":16,"byteOffset":213620},{"buffer":0,"byteLength":16,"byteOffset":213636},{"buffer":0,"byteLength":16,"byteOffset":213652},{"buffer":0,"byteLength":16,"byteOffset":213668},{"buffer":0,"byteLength":16,"byteOffset":213684},{"buffer":0,"byteLength":16,"byteOffset":213700},{"buffer":0,"byteLength":16,"byteOffset":213716},{"buffer":0,"byteLength":16,"byteOffset":213732},{"buffer":0,"byteLength":16,"byteOffset":213748},{"buffer":0,"byteLength":16,"byteOffset":213764},{"buffer":0,"byteLength":156,"byteOffset":213780},{"buffer":0,"byteLength":468,"byteOffset":213936},{"buffer":0,"byteLength":152,"byteOffset":214404},{"buffer":0,"byteLength":608,"byteOffset":214556},{"buffer":0,"byteLength":16,"byteOffset":215164},{"buffer":0,"byteLength":16,"byteOffset":215180},{"buffer":0,"byteLength":16,"byteOffset":215196},{"buffer":0,"byteLength":16,"byteOffset":215212},{"buffer":0,"byteLength":16,"byteOffset":215228},{"buffer":0,"byteLength":16,"byteOffset":215244},{"buffer":0,"byteLength":16,"byteOffset":215260},{"buffer":0,"byteLength":16,"byteOffset":215276},{"buffer":0,"byteLength":16,"byteOffset":215292},{"buffer":0,"byteLength":16,"byteOffset":215308},{"buffer":0,"byteLength":16,"byteOffset":215324},{"buffer":0,"byteLength":16,"byteOffset":215340},{"buffer":0,"byteLength":16,"byteOffset":215356},{"buffer":0,"byteLength":16,"byteOffset":215372},{"buffer":0,"byteLength":16,"byteOffset":215388},{"buffer":0,"byteLength":12,"byteOffset":215404},{"buffer":0,"byteLength":16,"byteOffset":215416},{"buffer":0,"byteLength":12,"byteOffset":215432},{"buffer":0,"byteLength":16,"byteOffset":215444},{"buffer":0,"byteLength":16,"byteOffset":215460},{"buffer":0,"byteLength":468,"byteOffset":215476},{"buffer":0,"byteLength":608,"byteOffset":215944},{"buffer":0,"byteLength":12,"byteOffset":216552},{"buffer":0,"byteLength":16,"byteOffset":216564},{"buffer":0,"byteLength":12,"byteOffset":216580},{"buffer":0,"byteLength":16,"byteOffset":216592},{"buffer":0,"byteLength":16,"byteOffset":216608},{"buffer":0,"byteLength":16,"byteOffset":216624},{"buffer":0,"byteLength":16,"byteOffset":216640},{"buffer":0,"byteLength":16,"byteOffset":216656},{"buffer":0,"byteLength":16,"byteOffset":216672},{"buffer":0,"byteLength":16,"byteOffset":216688},{"buffer":0,"byteLength":16,"byteOffset":216704},{"buffer":0,"byteLength":16,"byteOffset":216720},{"buffer":0,"byteLength":16,"byteOffset":216736},{"buffer":0,"byteLength":16,"byteOffset":216752},{"buffer":0,"byteLength":16,"byteOffset":216768},{"buffer":0,"byteLength":12,"byteOffset":216784},{"buffer":0,"byteLength":16,"byteOffset":216796},{"buffer":0,"byteLength":16,"byteOffset":216812},{"buffer":0,"byteLength":16,"byteOffset":216828},{"buffer":0,"byteLength":16,"byteOffset":216844},{"buffer":0,"byteLength":16,"byteOffset":216860},{"buffer":0,"byteLength":16,"byteOffset":216876},{"buffer":0,"byteLength":16,"byteOffset":216892},{"buffer":0,"byteLength":16,"byteOffset":216908},{"buffer":0,"byteLength":16,"byteOffset":216924},{"buffer":0,"byteLength":16,"byteOffset":216940},{"buffer":0,"byteLength":16,"byteOffset":216956},{"buffer":0,"byteLength":16,"byteOffset":216972},{"buffer":0,"byteLength":16,"byteOffset":216988},{"buffer":0,"byteLength":16,"byteOffset":217004},{"buffer":0,"byteLength":16,"byteOffset":217020},{"buffer":0,"byteLength":16,"byteOffset":217036},{"buffer":0,"byteLength":16,"byteOffset":217052},{"buffer":0,"byteLength":16,"byteOffset":217068},{"buffer":0,"byteLength":16,"byteOffset":217084},{"buffer":0,"byteLength":12,"byteOffset":217100},{"buffer":0,"byteLength":16,"byteOffset":217112},{"buffer":0,"byteLength":16,"byteOffset":217128},{"buffer":0,"byteLength":16,"byteOffset":217144},{"buffer":0,"byteLength":16,"byteOffset":217160},{"buffer":0,"byteLength":16,"byteOffset":217176},{"buffer":0,"byteLength":16,"byteOffset":217192},{"buffer":0,"byteLength":16,"byteOffset":217208},{"buffer":0,"byteLength":16,"byteOffset":217224},{"buffer":0,"byteLength":16,"byteOffset":217240},{"buffer":0,"byteLength":16,"byteOffset":217256},{"buffer":0,"byteLength":16,"byteOffset":217272},{"buffer":0,"byteLength":16,"byteOffset":217288},{"buffer":0,"byteLength":16,"byteOffset":217304},{"buffer":0,"byteLength":16,"byteOffset":217320},{"buffer":0,"byteLength":16,"byteOffset":217336},{"buffer":0,"byteLength":16,"byteOffset":217352}],"buffers":[{"byteLength":217368,"uri":"outro0.bin"}],"extensionsUsed":["GODOT_single_root","KHR_materials_emissive_strength"],"materials":[{"doubleSided":true,"emissiveFactor":[1.0,1.0,1.0],"extensions":{"KHR_materials_emissive_strength":{"emissiveStrength":7.0}},"name":"cardboardmarker","pbrMetallicRoughness":{"baseColorFactor":[1.0,1.0,1.0,1.0],"metallicFactor":1.0,"roughnessFactor":1.0}},{"doubleSided":true,"name":"cuff","pbrMetallicRoughness":{"baseColorFactor":[1.0,1.0,1.0,1.0],"metallicFactor":1.0,"roughnessFactor":1.0}},{"doubleSided":true,"name":"Collector0.003","pbrMetallicRoughness":{"baseColorFactor":[1.0,1.0,1.0,1.0],"metallicFactor":1.0,"roughnessFactor":1.0}}],"meshes":[{"name":"Intro Scene_Cylinder_017","primitives":[{"attributes":{"JOINTS_0":6,"NORMAL":4,"POSITION":2,"TANGENT":3,"TEXCOORD_0":5,"WEIGHTS_0":7},"indices":8,"material":0,"mode":4}]},{"name":"Intro Scene_Cube_003","primitives":[{"attributes":{"JOINTS_0":13,"NORMAL":11,"POSITION":9,"TANGENT":10,"TEXCOORD_0":12,"WEIGHTS_0":14},"indices":15,"material":1,"mode":4}]},{"name":"Intro Scene_Cube_005","primitives":[{"attributes":{"JOINTS_0":20,"NORMAL":18,"POSITION":16,"TANGENT":17,"TEXCOORD_0":19,"WEIGHTS_0":21},"indices":22,"material":2,"mode":4}]}],"nodes":[{"children":[1,8],"name":"Intro Scene"},{"children":[2,7],"name":"Armature_002"},{"children":[3,5],"name":"CardboardRoot","rotation":[0.0,0.70710677,0.70710677,0.0]},{"children":[4],"name":"CardboardSign","rotation":[3.090862e-08,0.70710677,0.70710677,3.090862e-08]},{"name":"CardboardSign_OFFSET"},{"children":[6],"name":"Marker","rotation":[-8.432159e-09,-0.70710665,0.7071069,-5.338506e-08]},{"name":"Marker_OFFSET"},{"mesh":0,"name":"Cylinder","skin":0},{"children":[9,10,11,61,62,83,84,85,86,87,88,89,110,111],"name":"Armature","scale":[0.270708,0.27070823,0.27070823],"translation":[0.0,0.0,-0.217694]},{"name":"Root"},{"name":"Pelvis_001","rotation":[1.609402e-08,0.9999018,0.01401452,1.1482684e-06],"translation":[0.32467496,0.35976267,-5.758995]},{"children":[12,19],"name":"Spine_006","rotation":[0.010113651,0.99953294,0.009577726,0.027202124],"translation":[-7.450581e-09,1.0547568,-0.045440495]},{"children":[13],"name":"Spine_005","rotation":[0.88732284,0.12086062,-0.11050723,0.4310905]},{"children":[14],"name":"Spine_004","rotation":[-0.42063364,-0.061144978,0.14703032,0.8931465],"translation":[3.7252903e-08,0.88834345,4.004687e-08]},{"children":[15],"name":"Spine_003","rotation":[0.24838607,-0.03531733,0.12877102,0.95941395],"translation":[-3.9115548e-08,1.0515223,-2.7939677e-09]},{"children":[16],"name":"Spine_002","rotation":[-0.17528301,0.027967427,-0.11627247,0.9772279],"translation":[8.568168e-08,1.2600007,-1.5599653e-07]},{"children":[17],"name":"Spine_001","rotation":[-0.12422627,0.010908164,0.05430343,0.99070686],"translation":[-2.0489097e-08,0.9983049,-4.4703484e-08]},{"children":[18],"name":"Spine","rotation":[0.47228274,-0.024239926,-0.09527684,0.87594736],"translation":[1.18045136e-07,0.760056,-1.1175871e-08]},{"name":"Pelvis","rotation":[-0.2462801,0.015996825,0.10496086,0.9633657],"translation":[7.0780516e-08,0.6805629,7.47852e-07]},{"children":[20],"name":"Spine_007","rotation":[-0.16001838,0.05686271,-0.16685674,0.9712464],"translation":[0.0,1.9184883,1.1944212e-07]},{"children":[21],"name":"Spine_008","rotation":[0.23564269,-0.002413135,0.22332291,0.9458296],"translation":[2.3347093e-07,0.7722896,-1.937151e-07]},{"children":[22],"name":"Spine_009","rotation":[0.1474146,0.019817002,0.031506065,0.98837423],"translation":[-5.9604645e-08,1.0112284,3.678724e-08]},{"children":[23],"name":"Spine_010","rotation":[0.08516181,0.9774023,-0.18663403,0.050989144],"translation":[-1.3111924e-07,0.57665384,3.0292057e-07]},{"children":[24],"name":"Spine_011","rotation":[0.10948659,3.186643e-08,4.3206605e-08,0.9939883],"translation":[-2.3980817e-14,0.58164465,-8.940697e-08]},{"children":[25,40,45,50,52,56,60],"name":"Spine_012","rotation":[-0.0043477016,2.2349957e-15,-1.0365712e-09,0.9999905],"translation":[-3.8191672e-14,0.99421406,1.1920928e-07]},{"children":[26,33,34],"name":"Neck","rotation":[-0.0049831546,2.490328e-05,0.00498438,0.99997514],"translation":[-5.2402527e-14,1.0158225,1.7881393e-07]},{"children":[27,29,32],"name":"Head","rotation":[0.04305229,-0.0018053424,0.031903043,0.9985617],"translation":[-8.731149e-10,0.6580919,1.1650358e-07]},{"children":[28],"name":"Hat","rotation":[-0.0074445405,0.0002750224,-0.036913194,0.9992907],"translation":[-0.0845297,1.0733093,-1.8791047e-07]},{"name":"Brim","rotation":[0.7388318,-3.7521626e-09,1.7268108e-07,0.67388994]},{"children":[30,31],"name":"Teeth top","rotation":[0.7161184,-0.0264527,-0.025746418,0.69700205],"translation":[-0.015868085,0.6892383,-0.29116693]},{"name":"Teeth_R","translation":[-0.28531507,0.0208302,0.08600662]},{"name":"Teeth_L","translation":[0.29813117,0.020830164,0.086007155]},{"name":"Teeth Bottom","rotation":[0.8075398,-0.029829694,-0.02174404,0.58865684],"translation":[-0.022490716,0.59971917,-0.30118868]},{"name":"Cape","rotation":[-0.062136684,0.00030953684,-0.004974823,0.9980552],"translation":[0.0020025077,0.2008667,-0.05105734]},{"children":[35,36,37,38,39],"name":"fnfmodding_hollywood","rotation":[-0.062136676,0.00030954106,-0.004974755,0.9980552],"translation":[3.323128,1.9387732,-0.16421641]},{"name":"armikR_slider","translation":[-1.4115356,2.973034,2.949892e-07]},{"name":"armikL_slider","translation":[1.3603406,2.9730334,4.2899853e-07]},{"name":"handParentR_slider","translation":[-1.4115359,0.8082627,3.1111801e-07]},{"name":"handParentL_slider","translation":[1.3603404,0.8082624,4.451273e-07]},{"name":"handParentL_slider_001","translation":[-0.53759134,-1.7795188,1.5022376e-08]},{"children":[41,44],"name":"Collar_R","rotation":[0.072404884,0.011027386,0.5906162,0.80362207],"translation":[-0.11625426,0.75732654,-0.102341324]},{"children":[42],"name":"Arm_R","rotation":[0.7112816,-0.696494,-0.0075837863,0.09443058],"translation":[-0.21713905,0.63718593,0.08659143]},{"children":[43],"name":"Forearm_R","rotation":[-0.041704923,-1.8241131e-05,0.0045230933,0.9991197],"translation":[-3.7252903e-09,2.6448622,3.3527613e-08]},{"name":"Bigcuff_R","rotation":[0.04021614,-0.008992016,0.7781614,0.62671095],"translation":[1.0430813e-07,1.8973185,7.450581e-09]},{"name":"Cape_R","rotation":[0.72122866,-0.6804485,-0.01585454,0.12871554],"translation":[0.01829648,0.9495536,0.21154317]},{"children":[46,49],"name":"Collar_L","rotation":[0.07240504,-0.011027618,-0.590616,0.8036222],"translation":[0.11625431,0.75732654,-0.102341264]},{"children":[47],"name":"Arm_L","rotation":[0.7112816,0.696494,0.007583802,0.0944306],"translation":[0.21713941,0.6371858,0.08659156]},{"children":[48],"name":"Forearm_L","rotation":[-0.041704934,1.8184277e-05,-0.0045231213,0.9991197],"translation":[2.2351742e-08,2.6448622,-1.1175871e-08]},{"name":"Bigcuff_L","rotation":[0.04021614,0.008992095,-0.77816135,0.626711],"translation":[-4.0978193e-08,1.8973185,4.4703484e-08]},{"name":"Cape_L","rotation":[0.72122866,0.6804485,0.015854487,0.12871566],"translation":[-0.018296123,0.94955355,0.21154338]},{"children":[51],"name":"Cape_001","rotation":[0.99995744,2.1991524e-09,1.5039826e-14,-0.009223917],"translation":[1.1480822e-07,0.5268169,-0.4815405]},{"name":"Cape_002","rotation":[-0.0326313,-2.4451803e-14,7.7799065e-09,0.9994675],"translation":[8.881784e-15,1.8922311,3.5527137e-15]},{"children":[53],"name":"Cape_L_001","rotation":[0.9959658,0.08578158,0.0038113752,0.026059456],"translation":[0.9846749,-0.5076934,-0.3829876]},{"children":[54],"name":"Cape_L_002","rotation":[-0.13042149,-0.010887213,0.110429995,0.9852294],"translation":[-8.940697e-08,1.3097813,-6.519258e-09]},{"children":[55],"name":"Cape_L_003","rotation":[0.075152814,0.044053704,-0.3052716,0.9482724],"translation":[6.239861e-08,2.7199626,1.2572855e-08]},{"name":"Cape_L_004","rotation":[-0.18728544,1.4761417e-07,-0.09270738,0.977921],"translation":[-9.313226e-08,1.8528184,6.519258e-08]},{"children":[57],"name":"Cape_R_001","rotation":[0.9959658,-0.0857819,-0.003809848,0.026059313],"translation":[-0.98467475,-0.50769395,-0.38298807]},{"children":[58],"name":"Cape_R_002","rotation":[-0.13042113,0.010887023,-0.110429324,0.9852295],"translation":[-1.0058284e-07,1.3097813,2.0395964e-07]},{"children":[59],"name":"Cape_R_003","rotation":[0.0751517,-0.044053737,0.30526945,0.9482732],"translation":[6.891787e-08,2.7199595,1.0617077e-07]},{"name":"Cape_R_004","rotation":[-0.1872858,2.5713437e-08,0.09270687,0.977921],"translation":[-1.4528632e-07,1.8528169,-2.2351742e-08]},{"name":"Capemain","rotation":[-0.0021921932,6.2381347e-15,-5.2266036e-10,0.9999976],"translation":[8.376661e-09,0.78962106,-0.035134196]},{"name":"Pipe","rotation":[0.75752825,0.26018816,-0.38320637,0.46000645],"translation":[0.04006203,8.879335,0.31792644]},{"children":[63],"name":"Forearm_L_001","rotation":[0.9858319,0.16541503,0.023985242,0.014072405],"translation":[2.0253294,3.0804417,-0.011203766]},{"children":[64],"name":"Hand_L","rotation":[0.017866902,0.00040221584,-0.00016017724,0.99984026],"translation":[-1.899898e-07,0.33095184,1.4156103e-07]},{"children":[65,68,80],"name":"Index_L","rotation":[-0.12134728,0.061649922,-0.0068681147,0.99066997],"translation":[0.07723642,0.045984764,-0.1573765]},{"children":[66],"name":"Index_L_001","rotation":[0.0070237746,0.00014450242,0.046432063,0.9988968],"translation":[-7.4505806e-08,0.42326227,8.940697e-08]},{"children":[67],"name":"Index_L_002","rotation":[-0.0049007554,1.6766107e-05,-0.026213408,0.99964434],"translation":[-1.1920929e-07,0.19409692,0.0]},{"name":"Index_L_003","rotation":[0.0051768785,2.4764799e-05,-0.0141227795,0.9998869],"translation":[2.8312206e-07,0.20610891,-5.9604645e-08]},{"children":[69,72],"name":"Middle_L","rotation":[0.092229456,-0.039463837,-0.034148768,0.99436927],"translation":[-0.019443884,-0.007276848,0.104314834]},{"children":[70],"name":"Middle_L_001","rotation":[-0.0056270454,-0.0054408037,0.04024535,0.99915916],"translation":[-1.1175871e-08,0.43274057,5.2154064e-08]},{"children":[71],"name":"Middle_L_002","rotation":[-0.0015940779,-0.0010260425,-0.019440437,0.9998092],"translation":[6.7055225e-08,0.23153079,1.1175871e-07]},{"name":"Middle_L_003","rotation":[0.003826671,0.006723418,-0.014547077,0.9998643],"translation":[-1.1920929e-07,0.2061091,7.450581e-09]},{"children":[73,76],"name":"Ring_L","rotation":[0.07450172,-0.06165362,0.002014321,0.99531114],"translation":[-0.020910576,-0.017601512,0.12503383]},{"children":[74],"name":"Ring_L_001","rotation":[-0.036073126,-0.002668044,0.041947607,0.9984648],"translation":[-1.1920929e-07,0.43083692,2.0861626e-07]},{"children":[75],"name":"Ring_L_002","rotation":[-0.004187852,-0.015618933,-0.019051043,0.99968773],"translation":[-1.7508864e-07,0.231531,-5.5879354e-09]},{"name":"Ring_L_003","rotation":[0.0014222193,-0.006652171,-0.014974755,0.99986476],"translation":[1.3411045e-07,0.20610929,5.9604645e-08]},{"children":[77],"name":"Pinky_L","rotation":[0.042055827,0.0018975474,0.036778495,0.9984363],"translation":[-0.017042674,0.01968667,0.13065745]},{"children":[78],"name":"Pinky_L_001","rotation":[-0.044930656,-0.039039567,0.04412609,0.9972513],"translation":[1.6391277e-07,0.38175577,0.0]},{"children":[79],"name":"Pinky_L_002","rotation":[-0.0015792033,-0.008803948,-0.024069658,0.99967027],"translation":[3.1292439e-07,0.1919871,2.2351742e-08]},{"name":"Pinky_L_003","rotation":[0.00092217064,0.0069663143,-0.015013316,0.9998626],"translation":[5.2154064e-07,0.20610917,1.937151e-07]},{"children":[81],"name":"Thumb_L","rotation":[-0.25066426,0.65400434,-0.052692007,0.7118071],"translation":[-0.11602748,-0.075134486,-0.015444487]},{"children":[82],"name":"Thumb_L_001","rotation":[0.017349072,0.043754928,0.057187777,0.9972533],"translation":[-1.1920929e-07,0.29687414,2.4586916e-07]},{"name":"Thumb_L_002","rotation":[0.014157787,0.022511225,0.0050851335,0.99963343],"translation":[2.9802322e-08,0.2061086,1.3411045e-07]},{"name":"Spine_013","rotation":[0.002775577,-0.014281352,0.99989414,-3.9643153e-05],"translation":[0.1470585,-0.08917469,-3.9088914]},{"name":"Spine_014","rotation":[0.022510998,-0.007809778,0.9997161,-0.00017585626],"translation":[-0.24940118,0.11488079,-1.745903]},{"name":"Forearm_R_002","rotation":[-0.713112,0.07980018,-0.082280464,0.6916163],"translation":[-2.0253294,3.0804417,-0.011203766]},{"name":"Forearm_L_002","rotation":[-0.713112,-0.07980018,0.082280464,0.6916163],"translation":[2.0253294,3.0804417,-0.011203766]},{"name":"Arm_R_001","rotation":[-0.7043949,0.08139203,-0.081861146,0.70035845],"translation":[-1.4977386,4.9020834,-4.8955984]},{"name":"Arm_L_001","rotation":[-0.7043949,-0.08139203,0.081861146,0.70035845],"translation":[1.4977386,4.9020834,-4.8955984]},{"children":[90],"name":"Forearm_R_001","rotation":[0.9858319,-0.16541503,-0.023985242,0.014072405],"translation":[-2.0253294,3.0804417,-0.011203766]},{"children":[91],"name":"Hand_R","rotation":[0.017866902,-0.00040221584,0.00016017724,0.99984026],"translation":[1.899898e-07,0.33095184,1.4156103e-07]},{"children":[92,95,107],"name":"Index_R","rotation":[-0.12134728,-0.061649922,0.0068681147,0.99066997],"translation":[-0.07723642,0.045984764,-0.1573765]},{"children":[93],"name":"Index_R_001","rotation":[0.0070237746,-0.00014450242,-0.046432063,0.9988968],"translation":[7.4505806e-08,0.42326227,8.940697e-08]},{"children":[94],"name":"Index_R_002","rotation":[-0.0049007554,-1.6766107e-05,0.026213408,0.99964434],"translation":[1.1920929e-07,0.19409692,0.0]},{"name":"Index_R_003","rotation":[0.0051768785,-2.4764799e-05,0.0141227795,0.9998869],"translation":[-2.8312206e-07,0.20610891,-5.9604645e-08]},{"children":[96,99],"name":"Middle_R","rotation":[0.092229456,0.039463837,0.034148768,0.99436927],"translation":[0.019443884,-0.007276848,0.104314834]},{"children":[97],"name":"Middle_R_001","rotation":[-0.0056270454,0.0054408037,-0.04024535,0.99915916],"translation":[1.1175871e-08,0.43274057,5.2154064e-08]},{"children":[98],"name":"Middle_R_002","rotation":[-0.0015940779,0.0010260425,0.019440437,0.9998092],"translation":[-6.7055225e-08,0.23153079,1.1175871e-07]},{"name":"Middle_R_003","rotation":[0.003826671,-0.006723418,0.014547077,0.9998643],"translation":[1.1920929e-07,0.2061091,7.450581e-09]},{"children":[100,103],"name":"Ring_R","rotation":[0.07450172,0.06165362,-0.002014321,0.99531114],"translation":[0.020910576,-0.017601512,0.12503383]},{"children":[101],"name":"Ring_R_001","rotation":[-0.036073126,0.002668044,-0.041947607,0.9984648],"translation":[1.1920929e-07,0.43083692,2.0861626e-07]},{"children":[102],"name":"Ring_R_002","rotation":[-0.004187852,0.015618933,0.019051043,0.99968773],"translation":[1.7508864e-07,0.231531,-5.5879354e-09]},{"name":"Ring_R_003","rotation":[0.0014222193,0.006652171,0.014974755,0.99986476],"translation":[-1.3411045e-07,0.20610929,5.9604645e-08]},{"children":[104],"name":"Pinky_R","rotation":[0.042055827,-0.0018975474,-0.036778495,0.9984363],"translation":[0.017042674,0.01968667,0.13065745]},{"children":[105],"name":"Pinky_R_001","rotation":[-0.044930656,0.039039567,-0.04412609,0.9972513],"translation":[-1.6391277e-07,0.38175577,0.0]},{"children":[106],"name":"Pinky_R_002","rotation":[-0.0015792033,0.008803948,0.024069658,0.99967027],"translation":[-3.1292439e-07,0.1919871,2.2351742e-08]},{"name":"Pinky_R_003","rotation":[0.00092217064,-0.0069663143,0.015013316,0.9998626],"translation":[-5.2154064e-07,0.20610917,1.937151e-07]},{"children":[108],"name":"Thumb_R","rotation":[-0.25066426,-0.65400434,0.052692007,0.7118071],"translation":[0.11602748,-0.075134486,-0.015444487]},{"children":[109],"name":"Thumb_R_001","rotation":[0.017349072,-0.043754928,-0.057187777,0.9972533],"translation":[1.1920929e-07,0.29687414,2.4586916e-07]},{"name":"Thumb_R_002","rotation":[0.014157787,-0.022511225,-0.0050851335,0.99963343],"translation":[-2.9802322e-08,0.2061086,1.3411045e-07]},{"mesh":1,"name":"Body_001","skin":1},{"mesh":2,"name":"Hands","skin":1}],"scene":0,"scenes":[{"name":"outro","nodes":[0]}],"skins":[{"inverseBindMatrices":0,"joints":[2,3,4,5,6],"name":"Skin"},{"inverseBindMatrices":1,"joints":[9,10,11,12,13,14,15,16,17,18,19,20,21,22,23,24,25,26,27,28,29,30,31,32,33,34,35,36,37,38,39,40,41,42,43,44,45,46,47,48,49,50,51,52,53,54,55,56,57,58,59,60,61,62,63,64,65,66,67,68,69,70,71,72,73,74,75,76,77,78,79,80,81,82,83,84,85,86,87,88,89,90,91,92,93,94,95,96,97,98,99,100,101,102,103,104,105,106,107,108,109],"name":"Skin2"}]}