{"accessors":[{"bufferView":0,"componentType":5126,"count":586,"max":[0.050021194,0.119507775,0.026933726],"min":[-0.050339468,0.0005564466,-0.03762168],"normalized":false,"type":"VEC3"},{"bufferView":1,"componentType":5126,"count":586,"max":[0.9999059,0.9779116,0.9999584,1.0],"min":[-0.99999374,-0.9872428,-0.99989724,-1.0],"normalized":false,"type":"VEC4"},{"bufferView":2,"componentType":5126,"count":586,"max":[0.9999496,0.9999735,0.9999974],"min":[-0.9994771,-0.99999976,-0.99999744],"normalized":false,"type":"VEC3"},{"bufferView":3,"componentType":5126,"count":586,"max":[0.9963836,0.9925536],"min":[0.0053406577,0.004272526],"normalized":false,"type":"VEC2"},{"bufferView":4,"componentType":5123,"count":2556,"max":[585],"min":[0],"normalized":false,"type":"SCALAR"},{"bufferView":5,"componentType":5126,"count":6968,"max":[7.1349096,1.1129925,2.0415359],"min":[-1.1895187,-1.7575505,-0.5487256],"normalized":false,"type":"VEC3"},{"bufferView":6,"componentType":5126,"count":6968,"max":[0.9999578,0.99980575,0.9998683,1.0],"min":[-0.9999809,-0.99999297,-0.9999225,-1.0],"normalized":false,"type":"VEC4"},{"bufferView":7,"componentType":5126,"count":6968,"max":[0.9998279,0.9999637,0.99996555],"min":[-0.9998007,-0.9999791,-0.9991952],"normalized":false,"type":"VEC3"},{"bufferView":8,"componentType":5126,"count":6968,"max":[0.9904784,0.9904784],"min":[0.009506371,0.010589762],"normalized":false,"type":"VEC2"},{"bufferView":9,"componentType":5123,"count":33579,"max":[6967],"min":[0],"normalized":false,"type":"SCALAR"},{"bufferView":10,"componentType":5126,"count":1640,"max":[5.4404373,1.564621,1.9114021],"min":[-1.2805281,-1.7346973,-1.392807],"normalized":false,"type":"VEC3"},{"bufferView":11,"componentType":5126,"count":1640,"max":[1.0,0.9985003,0.9983582,1.0],"min":[-0.9981766,-0.9977288,-0.9998965,-1.0],"normalized":false,"type":"VEC4"},{"bufferView":12,"componentType":5126,"count":1640,"max":[0.99814373,0.9997166,0.99997956],"min":[-0.9998512,-0.9998841,-0.99822766],"normalized":false,"type":"VEC3"},{"bufferView":13,"componentType":5126,"count":1640,"max":[0.9799073,0.9948666],"min":[0.0051333774,0.0051335096],"normalized":false,"type":"VEC2"},{"bufferView":14,"componentType":5123,"count":8175,"max":[1639],"min":[0],"normalized":false,"type":"SCALAR"}],"asset":{"copyright":"The Creators of 'Friday Night Funkin': Lullaby'","generator":"GDRE Tools vv2.6.3","version":"2.0"},"bufferViews":[{"buffer":0,"byteLength":7032,"byteStride":12,"target":34962},{"buffer":0,"byteLength":9376,"byteOffset":7032,"byteStride":16,"target":34962},{"buffer":0,"byteLength":7032,"byteOffset":16408,"byteStride":12,"target":34962},{"buffer":0,"byteLength":4688,"byteOffset":23440,"byteStride":8,"target":34962},{"buffer":0,"byteLength":5112,"byteOffset":28128,"target":34963},{"buffer":0,"byteLength":83616,"byteOffset":33240,"byteStride":12,"target":34962},{"buffer":0,"byteLength":111488,"byteOffset":116856,"byteStride":16,"target":34962},{"buffer":0,"byteLength":83616,"byteOffset":228344,"byteStride":12,"target":34962},{"buffer":0,"byteLength":55744,"byteOffset":311960,"byteStride":8,"target":34962},{"buffer":0,"byteLength":67158,"byteOffset":367704,"target":34963},{"buffer":0,"byteLength":19680,"byteOffset":434864,"byteStride":12,"target":34962},{"buffer":0,"byteLength":26240,"byteOffset":454544,"byteStride":16,"target":34962},{"buffer":0,"byteLength":19680,"byteOffset":480784,"byteStride":12,"target":34962},{"buffer":0,"byteLength":13120,"byteOffset":500464,"byteStride":8,"target":34962},{"buffer":0,"byteLength":16350,"byteOffset":513584,"target":34963},{"buffer":0,"byteLength":36642,"byteOffset":529934},{"buffer":0,"byteLength":56111,"byteOffset":566576},{"buffer":0,"byteLength":74353,"byteOffset":622687},{"buffer":0,"byteLength":431270,"byteOffset":697040},{"buffer":0,"byteLength":103825,"byteOffset":1128310},{"buffer":0,"byteLength":1747449,"byteOffset":1232135},{"buffer":0,"byteLength":656947,"byteOffset":2979584},{"buffer":0,"byteLength":37623,"byteOffset":3636531},{"buffer":0,"byteLength":1089260,"byteOffset":3674154}],"buffers":[{"byteLength":4763414,"uri":"prp_plushies0.bin"}],"extensionsUsed":["GODOT_single_root"],"images":[{"bufferView":15,"mimeType":"image/png","name":"pikacu"},{"bufferView":16,"mimeType":"image/png","name":"pikacu_orm"},{"bufferView":17,"mimeType":"image/png","name":"pikacu_normal"},{"bufferView":18,"mimeType":"image/png","name":"plushies"},{"bufferView":19,"mimeType":"image/png","name":"plushies_roughness"},{"bufferView":20,"mimeType":"image/png","name":"plushies_normal"},{"bufferView":21,"mimeType":"image/png","name":"plushies_small"},{"bufferView":22,"mimeType":"image/png","name":"plushies_small_roughness"},{"bufferView":23,"mimeType":"image/png","name":"plushies_small_normal"}],"materials":[{"name":"pikacu","normalTexture":{"index":2,"scale":1.0},"pbrMetallicRoughness":{"baseColorFactor":[1.0,1.0,1.0,1.0],"baseColorTexture":{"index":0},"metallicFactor":1.0,"metallicRoughnessTexture":{"index":1},"roughnessFactor":1.0}},{"name":"plushies_big","normalTexture":{"index":5,"scale":1.0},"pbrMetallicRoughness":{"baseColorFactor":[1.0,1.0,1.0,1.0],"baseColorTexture":{"index":3},"metallicFactor":0.0,"metallicRoughnessTexture":{"index":4},"roughnessFactor":1.0}},{"name":"plushies_little","normalTexture":{"index":8,"scale":1.0},"pbrMetallicRoughness":{"baseColorFactor":[1.0,1.0,1.0,1.0],"baseColorTexture":{"index":6},"metallicFactor":0.0,"metallicRoughnessTexture":{"index":7},"roughnessFactor":1.0}}],"meshes":[{"name":"Cube_014","primitives":[{"attributes":{"NORMAL":2,"POSITION":0,"TANGENT":1,"TEXCOORD_0":3},"indices":4,"material":0,"mode":4}]},{"name":"Cube_043","primitives":[{"attributes":{"NORMAL":7,"POSITION":5,"TANGENT":6,"TEXCOORD_0":8},"indices":9,"material":1,"mode":4},{"attributes":{"NORMAL":12,"POSITION":10,"TANGENT":11,"TEXCOORD_0":13},"indices":14,"material":2,"mode":4}]}],"nodes":[{"children":[1,2],"name":"prp_plushies"},{"mesh":0,"name":"Pikacu","rotation":[0.0,0.5591943,0.0,0.8290366],"scale":[1.5000001,1.5,1.5000001],"translation":[-3.0209248,2.6492476,3.1092687]},{"mesh":1,"name":"Plushies","rotation":[0.0,0.72958285,0.0,0.6838924],"scale":[0.19076627,0.19076627,0.19076627],"translation":[-3.2306125,2.9710839,4.4326158]}],"samplers":[{"magFilter":9729,"minFilter":9987,"wrapS":10497,"wrapT":10497}],"scene":0,"scenes":[{"name":"prp_plushies","nodes":[0]}],"textures":[{"sampler":0,"source":0},{"sampler":0,"source":1},{"sampler":0,"source":2},{"sampler":0,"source":3},{"sampler":0,"source":4},{"sampler":0,"source":5},{"sampler":0,"source":6},{"sampler":0,"source":7},{"sampler":0,"source":8}]}