{"accessors":[{"bufferView":0,"componentType":5126,"count":223,"max":[2.2441719,1.5025691,3.926527],"min":[-2.163132,-0.0016275644,-2.2031753],"normalized":false,"type":"VEC3"},{"bufferView":1,"componentType":5126,"count":223,"max":[0.9914971,0.9999967,1.0,1.0],"min":[-0.9953624,-1.0,-1.0,1.0],"normalized":false,"type":"VEC4"},{"bufferView":2,"componentType":5126,"count":223,"max":[1.0,1.0,1.0],"min":[-1.0,-1.0,-0.6647922],"normalized":false,"type":"VEC3"},{"bufferView":3,"componentType":5126,"count":223,"max":[0.94223726,0.9905286],"min":[0.009471453,0.009471536],"normalized":false,"type":"VEC2"},{"bufferView":4,"componentType":5126,"count":223,"max":[0.97727275,0.97727275],"min":[0.022727273,0.022727273],"normalized":false,"type":"VEC2"},{"bufferView":5,"componentType":5121,"count":588,"max":[222],"min":[0],"normalized":false,"type":"SCALAR"},{"bufferView":6,"componentType":5126,"count":443,"max":[1.1505158,0.95325816,0.29665375],"min":[-1.1505158,-1.0,-0.29323542],"normalized":false,"type":"VEC3"},{"bufferView":7,"componentType":5126,"count":443,"max":[0.31638554,1.0,1.0,1.0],"min":[-1.0,-1.0,-1.0,-1.0],"normalized":false,"type":"VEC4"},{"bufferView":8,"componentType":5126,"count":443,"max":[0.99999803,1.0,1.0],"min":[-0.99999803,-1.0,-1.0],"normalized":false,"type":"VEC3"},{"bufferView":9,"componentType":5126,"count":443,"max":[0.9649688,0.9745357],"min":[0.061362684,0.034932435],"normalized":false,"type":"VEC2"},{"bufferView":10,"componentType":5126,"count":443,"max":[0.98333335,0.9807692],"min":[0.016666668,0.01923077],"normalized":false,"type":"VEC2"},{"bufferView":11,"componentType":5123,"count":1128,"max":[442],"min":[0],"normalized":false,"type":"SCALAR"},{"bufferView":12,"componentType":5126,"count":144,"max":[0.7647181,0.9832626,0.18328866],"min":[-0.7647181,-0.19937682,-0.0071458668],"normalized":false,"type":"VEC3"},{"bufferView":13,"componentType":5126,"count":144,"max":[1.0,0.7228637,0.9824183,1.0],"min":[-0.7451627,-1.0,-0.9999771,1.0],"normalized":false,"type":"VEC4"},{"bufferView":14,"componentType":5126,"count":144,"max":[1.0,0.70711756,1.0],"min":[-1.0,-0.9995018,-0.99492323],"normalized":false,"type":"VEC3"},{"bufferView":15,"componentType":5126,"count":144,"max":[0.83334655,0.9881824],"min":[0.011817582,0.0118175745],"normalized":false,"type":"VEC2"},{"bufferView":16,"componentType":5126,"count":144,"max":[0.96428573,0.96428573],"min":[0.035714287,0.035714287],"normalized":false,"type":"VEC2"},{"bufferView":17,"componentType":5121,"count":348,"max":[143],"min":[0],"normalized":false,"type":"SCALAR"},{"bufferView":18,"componentType":5126,"count":36,"max":[0.81386966,1.4863213,1.6516958],"min":[-0.81386966,1.1643808,1.0169724],"normalized":false,"type":"VEC3"},{"bufferView":19,"componentType":5126,"count":36,"max":[0.6721329,0.9902614,-0.12015646,1.0],"min":[-0.67211396,-0.99025965,-0.9888253,1.0],"normalized":false,"type":"VEC4"},{"bufferView":20,"componentType":5126,"count":36,"max":[0.7174319,0.97976804,0.6837489],"min":[-0.7174134,0.13385461,-0.6836624],"normalized":false,"type":"VEC3"},{"bufferView":21,"componentType":5126,"count":36,"max":[0.6876787,0.8712621],"min":[0.4998597,0.5436579],"normalized":false,"type":"VEC2"},{"bufferView":22,"componentType":5126,"count":36,"max":[0.95,0.95],"min":[0.05,0.05],"normalized":false,"type":"VEC2"},{"bufferView":23,"componentType":5121,"count":78,"max":[35],"min":[0],"normalized":false,"type":"SCALAR"},{"bufferView":24,"componentType":5126,"count":36,"max":[-1.1210704,1.456339,1.664172],"min":[-1.5698981,1.1891251,1.1373451],"normalized":false,"type":"VEC3"},{"bufferView":25,"componentType":5126,"count":36,"max":[0.0,1.0,0.7070636,1.0],"min":[-0.98800963,-1.0,-0.707096,1.0],"normalized":false,"type":"VEC4"},{"bufferView":26,"componentType":5126,"count":36,"max":[0.70711756,0.9772037,0.7071068],"min":[-0.7071499,-2.1579517e-05,-0.707096],"normalized":false,"type":"VEC3"},{"bufferView":27,"componentType":5126,"count":36,"max":[0.95523405,0.628098],"min":[0.8099161,0.4706174],"normalized":false,"type":"VEC2"},{"bufferView":28,"componentType":5126,"count":36,"max":[0.95,0.9166667],"min":[0.05,0.083333336],"normalized":false,"type":"VEC2"},{"bufferView":29,"componentType":5121,"count":78,"max":[35],"min":[0],"normalized":false,"type":"SCALAR"},{"bufferView":30,"componentType":5126,"count":14,"max":[0.41666666],"min":[0.0],"normalized":false,"type":"SCALAR"},{"bufferView":31,"componentType":5126,"count":14,"max":[0.0,1.9073486e-06,9.536743e-07],"min":[0.0,-0.15487194,9.536743e-07],"normalized":false,"type":"VEC3"},{"bufferView":32,"componentType":5126,"count":1,"max":[0.0],"min":[0.0],"normalized":false,"type":"SCALAR"},{"bufferView":33,"componentType":5126,"count":1,"max":[0.0,0.0,0.0],"min":[0.0,0.0,0.0],"normalized":false,"type":"VEC3"},{"bufferView":34,"componentType":5126,"count":14,"max":[4.7683716e-07,1.9073486e-06,0.27119827],"min":[-1.9073483e-06,1.9073486e-06,9.536743e-07],"normalized":false,"type":"VEC3"}],"animations":[{"channels":[{"sampler":0,"target":{"node":4,"path":"translation"}},{"sampler":1,"target":{"node":5,"path":"translation"}}],"name":"console_ejectbutAction","samplers":[{"input":30,"interpolation":"LINEAR","output":31},{"input":32,"interpolation":"LINEAR","output":33}]},{"channels":[{"sampler":0,"target":{"node":5,"path":"translation"}},{"sampler":1,"target":{"node":4,"path":"translation"}}],"name":"console_powbutAction","samplers":[{"input":30,"interpolation":"LINEAR","output":34},{"input":32,"interpolation":"LINEAR","output":33}]}],"asset":{"copyright":"The Creators of 'Friday Night Funkin': Lullaby'","generator":"GDRE Tools vv2.6.3","version":"2.0"},"bufferViews":[{"buffer":0,"byteLength":2676,"byteStride":12,"target":34962},{"buffer":0,"byteLength":3568,"byteOffset":2676,"byteStride":16,"target":34962},{"buffer":0,"byteLength":2676,"byteOffset":6244,"byteStride":12,"target":34962},{"buffer":0,"byteLength":1784,"byteOffset":8920,"byteStride":8,"target":34962},{"buffer":0,"byteLength":1784,"byteOffset":10704,"byteStride":8,"target":34962},{"buffer":0,"byteLength":588,"byteOffset":12488,"target":34963},{"buffer":0,"byteLength":5316,"byteOffset":13076,"byteStride":12,"target":34962},{"buffer":0,"byteLength":7088,"byteOffset":18392,"byteStride":16,"target":34962},{"buffer":0,"byteLength":5316,"byteOffset":25480,"byteStride":12,"target":34962},{"buffer":0,"byteLength":3544,"byteOffset":30796,"byteStride":8,"target":34962},{"buffer":0,"byteLength":3544,"byteOffset":34340,"byteStride":8,"target":34962},{"buffer":0,"byteLength":2256,"byteOffset":37884,"target":34963},{"buffer":0,"byteLength":1728,"byteOffset":40140,"byteStride":12,"target":34962},{"buffer":0,"byteLength":2304,"byteOffset":41868,"byteStride":16,"target":34962},{"buffer":0,"byteLength":1728,"byteOffset":44172,"byteStride":12,"target":34962},{"buffer":0,"byteLength":1152,"byteOffset":45900,"byteStride":8,"target":34962},{"buffer":0,"byteLength":1152,"byteOffset":47052,"byteStride":8,"target":34962},{"buffer":0,"byteLength":348,"byteOffset":48204,"target":34963},{"buffer":0,"byteLength":432,"byteOffset":48552,"byteStride":12,"target":34962},{"buffer":0,"byteLength":576,"byteOffset":48984,"byteStride":16,"target":34962},{"buffer":0,"byteLength":432,"byteOffset":49560,"byteStride":12,"target":34962},{"buffer":0,"byteLength":288,"byteOffset":49992,"byteStride":8,"target":34962},{"buffer":0,"byteLength":288,"byteOffset":50280,"byteStride":8,"target":34962},{"buffer":0,"byteLength":78,"byteOffset":50568,"target":34963},{"buffer":0,"byteLength":432,"byteOffset":50648,"byteStride":12,"target":34962},{"buffer":0,"byteLength":576,"byteOffset":51080,"byteStride":16,"target":34962},{"buffer":0,"byteLength":432,"byteOffset":51656,"byteStride":12,"target":34962},{"buffer":0,"byteLength":288,"byteOffset":52088,"byteStride":8,"target":34962},{"buffer":0,"byteLength":288,"byteOffset":52376,"byteStride":8,"target":34962},{"buffer":0,"byteLength":78,"byteOffset":52664,"target":34963},{"buffer":0,"byteLength":56,"byteOffset":52744},{"buffer":0,"byteLength":168,"byteOffset":52800},{"buffer":0,"byteLength":4,"byteOffset":52968},{"buffer":0,"byteLength":12,"byteOffset":52972},{"buffer":0,"byteLength":168,"byteOffset":52984},{"buffer":0,"byteLength":747194,"byteOffset":53152},{"buffer":0,"byteLength":501841,"byteOffset":800346},{"buffer":0,"byteLength":521120,"byteOffset":1302187},{"buffer":0,"byteLength":380677,"byteOffset":1823307},{"buffer":0,"byteLength":442597,"byteOffset":2203984},{"buffer":0,"byteLength":105629,"byteOffset":2646581},{"buffer":0,"byteLength":825409,"byteOffset":2752210}],"buffers":[{"byteLength":3577619,"uri":"prp_console0.bin"}],"extensionsUsed":["GODOT_single_root","KHR_materials_unlit"],"images":[{"bufferView":35,"mimeType":"image/png","name":"console"},{"bufferView":36,"mimeType":"image/png","name":"console_roughness"},{"bufferView":37,"mimeType":"image/png","name":"console_normal"},{"bufferView":38,"mimeType":"image/png","name":"cartrige_adapter"},{"bufferView":39,"mimeType":"image/png","name":"cartrige_adapter_orm"},{"bufferView":40,"mimeType":"image/png","name":"cartrige_adapter_normal"},{"bufferView":41,"mimeType":"image/png","name":"hypno_cartridge"}],"materials":[{"name":"console","normalTexture":{"index":2,"scale":1.0},"pbrMetallicRoughness":{"baseColorFactor":[1.0,1.0,1.0,1.0],"baseColorTexture":{"index":0},"metallicFactor":0.0,"metallicRoughnessTexture":{"index":1},"roughnessFactor":1.0}},{"name":"cartridge_adapter","normalTexture":{"index":5,"scale":1.0},"pbrMetallicRoughness":{"baseColorFactor":[1.0,1.0,1.0,1.0],"baseColorTexture":{"index":3},"metallicFactor":1.0,"metallicRoughnessTexture":{"index":4},"roughnessFactor":1.0}},{"extensions":{"KHR_materials_unlit":{}},"name":"cartridge_body","pbrMetallicRoughness":{"baseColorFactor":[1.0,1.0,1.0,1.0],"baseColorTexture":{"index":6},"metallicFactor":0.0,"roughnessFactor":1.0}}],"meshes":[{"name":"Cube_026","primitives":[{"attributes":{"NORMAL":2,"POSITION":0,"TANGENT":1,"TEXCOORD_0":3,"TEXCOORD_1":4},"indices":5,"material":0,"mode":4}]},{"name":"Cube_025","primitives":[{"attributes":{"NORMAL":8,"POSITION":6,"TANGENT":7,"TEXCOORD_0":9,"TEXCOORD_1":10},"indices":11,"material":1,"mode":4}]},{"name":"Cube_008","primitives":[{"attributes":{"NORMAL":14,"POSITION":12,"TANGENT":13,"TEXCOORD_0":15,"TEXCOORD_1":16},"indices":17,"material":2,"mode":4}]},{"name":"Cube_031","primitives":[{"attributes":{"NORMAL":20,"POSITION":18,"TANGENT":19,"TEXCOORD_0":21,"TEXCOORD_1":22},"indices":23,"material":0,"mode":4}]},{"name":"Cube_030","primitives":[{"attributes":{"NORMAL":26,"POSITION":24,"TANGENT":25,"TEXCOORD_0":27,"TEXCOORD_1":28},"indices":29,"material":0,"mode":4}]}],"nodes":[{"children":[1],"name":"prp_console"},{"children":[2,4,5],"mesh":0,"name":"Console","rotation":[0.0,-0.6121269,0.0,0.79075956],"scale":[0.1361172,0.13611718,0.1361172],"translation":[3.2306578,1.5339941,3.08946]},{"children":[3],"mesh":1,"name":"Adapter","translation":[0.0,1.7772264,0.0]},{"mesh":2,"name":"Cartridge","scale":[0.8442589,0.8442591,0.8442589],"translation":[2.3841858e-06,0.15036201,0.0]},{"mesh":3,"name":"ConsoleEjectBut"},{"mesh":4,"name":"ConsolePowerBut"}],"samplers":[{"magFilter":9729,"minFilter":9987,"wrapS":10497,"wrapT":10497}],"scene":0,"scenes":[{"name":"prp_console","nodes":[0]}],"textures":[{"sampler":0,"source":0},{"sampler":0,"source":1},{"sampler":0,"source":2},{"sampler":0,"source":3},{"sampler":0,"source":4},{"sampler":0,"source":5},{"sampler":0,"source":6}]}