{"accessors":[{"bufferView":0,"componentType":5126,"count":1060,"max":[1.4901661,4.3431735,0.8819],"min":[-1.3350013,-0.029071597,-0.98684126],"normalized":false,"type":"VEC3"},{"bufferView":1,"componentType":5126,"count":1060,"max":[0.99997324,0.9999752,0.99902195,1.0],"min":[-0.9996014,-0.9999517,-0.9990228,-1.0],"normalized":false,"type":"VEC4"},{"bufferView":2,"componentType":5126,"count":1060,"max":[0.9995054,1.0,0.999959],"min":[-0.99950564,-1.0,-0.99997514],"normalized":false,"type":"VEC3"},{"bufferView":3,"componentType":5126,"count":1060,"max":[0.98739606,0.999527],"min":[0.00045777066,0.00045777066],"normalized":false,"type":"VEC2"},{"bufferView":4,"componentType":5123,"count":4260,"max":[1059],"min":[0],"normalized":false,"type":"SCALAR"}],"asset":{"copyright":"The Creators of 'Friday Night Funkin': Lullaby'","generator":"GDRE Tools vv2.6.3","version":"2.0"},"bufferViews":[{"buffer":0,"byteLength":12720,"byteStride":12,"target":34962},{"buffer":0,"byteLength":16960,"byteOffset":12720,"byteStride":16,"target":34962},{"buffer":0,"byteLength":12720,"byteOffset":29680,"byteStride":12,"target":34962},{"buffer":0,"byteLength":8480,"byteOffset":42400,"byteStride":8,"target":34962},{"buffer":0,"byteLength":8520,"byteOffset":50880,"target":34963},{"buffer":0,"byteLength":1120331,"byteOffset":59400}],"buffers":[{"byteLength":1179731,"uri":"Serenaling0.bin"}],"extensionsUsed":["GODOT_single_root","KHR_materials_unlit"],"images":[{"bufferView":5,"mimeType":"image/png","name":"BaseColor"}],"materials":[{"extensions":{"KHR_materials_unlit":{}},"name":"Serenaling","pbrMetallicRoughness":{"baseColorFactor":[1.0,1.0,1.0,1.0],"baseColorTexture":{"index":0},"metallicFactor":0.0,"roughnessFactor":1.0}}],"meshes":[{"name":"Cylinder_001","primitives":[{"attributes":{"NORMAL":2,"POSITION":0,"TANGENT":1,"TEXCOORD_0":3},"indices":4,"material":0,"mode":4}]}],"nodes":[{"children":[1],"name":"Serenaling"},{"mesh":0,"name":"SeraMESH"}],"samplers":[{"magFilter":9729,"minFilter":9987,"wrapS":10497,"wrapT":10497}],"scene":0,"scenes":[{"name":"Serenaling","nodes":[0]}],"textures":[{"sampler":0,"source":0}]}